<svg width="18" height="19" viewBox="0 0 18 19" fill="none" xmlns="http://www.w3.org/2000/svg">
<path fill-rule="evenodd" clip-rule="evenodd" d="M9 18.5C13.9706 18.5 18 14.4706 18 9.5C18 4.52944 13.9706 0.5 9 0.5C4.02944 0.5 0 4.52944 0 9.5C0 14.4706 4.02944 18.5 9 18.5ZM9.68595 11.4346H8.26691V11.3238C8.27544 9.78968 8.71009 9.31667 9.46436 8.84792C9.97998 8.52406 10.3763 8.11497 10.3763 7.51838C10.3763 6.84934 9.85214 6.41468 9.20015 6.41468C8.5993 6.41468 8.01975 6.79821 7.9814 7.59934H6.46436C6.50697 5.98003 7.7172 5.15332 9.20867 5.15332C10.8365 5.15332 11.9573 6.05673 11.9573 7.49707C11.9573 8.47292 11.4672 9.11213 10.6831 9.58088C9.9885 10.007 9.69447 10.4204 9.68595 11.3238V11.4346ZM9.95015 13.1562C9.94589 13.676 9.51549 14.0937 9.01265 14.0937C8.49276 14.0937 8.07089 13.676 8.07515 13.1562C8.07089 12.6448 8.49276 12.2272 9.01265 12.2272C9.51549 12.2272 9.94589 12.6448 9.95015 13.1562Z" fill="white"/>
</svg>
