<svg width="12" height="12" viewBox="0 0 12 12" fill="none" xmlns="http://www.w3.org/2000/svg">
<circle cx="6.26001" cy="6.01999" r="5.5" fill="#9D9D9D"/>
<path d="M5.80701 6.87459H6.67105V6.80713C6.67624 6.25705 6.85527 6.00537 7.27821 5.7459C7.75563 5.46048 8.05402 5.07128 8.05402 4.47709C8.05402 3.60008 7.37162 3.05001 6.38044 3.05001C5.4723 3.05001 4.7354 3.55338 4.70946 4.53936H5.63317C5.65652 4.05156 6.0094 3.81804 6.37525 3.81804C6.77224 3.81804 7.09139 4.0827 7.09139 4.49007C7.09139 4.85332 6.85008 5.10241 6.53612 5.29961C6.07686 5.58503 5.8122 5.87304 5.80701 6.80713V6.87459ZM6.26109 8.49368C6.56726 8.49368 6.82933 8.2394 6.83192 7.92285C6.82933 7.61149 6.56726 7.35721 6.26109 7.35721C5.94453 7.35721 5.68766 7.61149 5.69025 7.92285C5.68766 8.2394 5.94453 8.49368 6.26109 8.49368Z" fill="#1E1E1E"/>
</svg>
