<svg width="76" height="16" viewBox="0 0 76 16" fill="none" xmlns="http://www.w3.org/2000/svg">
<path fill-rule="evenodd" clip-rule="evenodd" d="M6.44389 15.2611C10.4289 16.2372 14.4646 13.8551 15.458 9.94083C16.4514 6.02634 14.0267 2.06117 10.0419 1.08529C6.05806 0.109404 2.02236 2.4918 1.02942 6.40651C0.0355425 10.3205 2.46049 14.2853 6.44389 15.2611ZM9.88763 5.28826C10.918 5.63692 11.6715 6.15957 11.5235 7.13179C11.4163 7.8435 11.0147 8.18805 10.4815 8.30883C11.2136 8.68329 11.5862 9.25754 11.2313 10.2531C10.7909 11.4895 9.74445 11.5938 8.35289 11.3351L8.01517 12.6647L7.19911 12.4649L7.53241 11.1531C7.3209 11.1015 7.10474 11.0467 6.88207 10.9874L6.5476 12.3053L5.73247 12.1055L6.07019 10.7734C5.994 10.7543 5.91732 10.7346 5.84011 10.7148C5.72417 10.6851 5.607 10.6551 5.48841 10.6259L4.42644 10.3659L4.83157 9.4482C4.83157 9.4482 5.43287 9.60529 5.42473 9.59364C5.65577 9.64981 5.75827 9.50186 5.79871 9.40322L6.33237 7.30144C6.35238 7.30616 6.37198 7.31099 6.39089 7.31565C6.40031 7.31797 6.40956 7.32024 6.41861 7.32245C6.38607 7.30966 6.35654 7.30144 6.33376 7.29573L6.71449 5.79537C6.72448 5.62504 6.66475 5.41018 6.33423 5.32913C6.34702 5.32068 5.74154 5.18436 5.74154 5.18436L5.95862 4.32813L7.08405 4.60418L7.08312 4.60829C7.25233 4.64962 7.42665 4.68889 7.60423 4.72862L7.9387 3.41207L8.7543 3.61186L8.42657 4.90261C8.64552 4.9517 8.86587 5.00125 9.0804 5.05376L9.4058 3.77146L10.2219 3.97125L9.88763 5.28826ZM7.30637 10.0632C7.97224 10.236 9.42755 10.6136 9.65892 9.70027C9.896 8.76641 8.48459 8.45529 7.79589 8.30348C7.71893 8.28652 7.651 8.27154 7.5954 8.25791L7.14727 10.0227C7.19293 10.0338 7.24646 10.0477 7.30637 10.0632ZM7.93427 7.48451C8.48943 7.63005 9.7004 7.94752 9.91134 7.1174C10.1267 6.26832 8.94978 6.01237 8.37498 5.88737C8.31032 5.8733 8.25328 5.8609 8.20669 5.84949L7.8004 7.45008C7.83878 7.45948 7.88381 7.47128 7.93427 7.48451Z" fill="white"/>
<path d="M25.9029 5.28692C26.5061 5.28692 27.0272 5.39309 27.4651 5.60156C27.9051 5.81208 28.2682 6.09567 28.5594 6.45232C28.8467 6.8108 29.0605 7.22978 29.1986 7.70996C29.3357 8.1915 29.4045 8.70913 29.4045 9.26329C29.4045 10.1145 29.2458 10.9187 28.9252 11.6767C28.6047 12.4359 28.1698 13.0944 27.6166 13.6561C27.0639 14.2171 26.4113 14.6594 25.6587 14.9861C24.9072 15.3131 24.0902 15.4766 23.213 15.4766C23.0996 15.4766 22.9002 15.4734 22.6185 15.4677C22.3368 15.462 22.013 15.4334 21.6504 15.3853C21.2855 15.3353 20.8996 15.2613 20.4922 15.1622C20.085 15.0649 19.6982 14.9286 19.334 14.7555L22.5908 1.31239L25.5078 0.868286L24.3417 5.63878C24.5913 5.52827 24.8428 5.44264 25.0938 5.38031C25.3451 5.31889 25.6147 5.28692 25.9029 5.28692ZM23.4561 13.2033C23.8954 13.2033 24.3094 13.0972 24.6982 12.8887C25.0883 12.68 25.4248 12.3983 25.7068 12.0473C25.9887 11.6948 26.2118 11.2977 26.3745 10.8541C26.5372 10.4104 26.6195 9.94759 26.6195 9.46604C26.6195 8.87444 26.5189 8.41299 26.3183 8.0794C26.1177 7.74718 25.7465 7.58004 25.2075 7.58004C25.0309 7.58004 24.8033 7.61314 24.5211 7.67228C24.238 7.73507 23.9847 7.86545 23.7576 8.06159L22.516 13.1278C22.5908 13.1408 22.657 13.1531 22.7135 13.1648C22.7688 13.1773 22.83 13.1862 22.8909 13.1924C22.9552 13.1995 23.0289 13.2031 23.118 13.2031C23.207 13.2031 23.3183 13.2033 23.4561 13.2033Z" fill="white"/>
<path d="M32.4296 15.2192H29.6434L31.9963 5.49308H34.8015L32.4296 15.2192ZM33.7853 4.30805C33.3965 4.30805 33.0439 4.19434 32.731 3.96647C32.4156 3.73997 32.2594 3.39131 32.2594 2.9214C32.2594 2.66294 32.3129 2.42045 32.4189 2.19166C32.5265 1.96333 32.6671 1.76674 32.8433 1.5996C33.0193 1.43384 33.2231 1.3014 33.4546 1.20162C33.6875 1.10344 33.9353 1.05435 34.1993 1.05435C34.5879 1.05435 34.9387 1.16806 35.2527 1.39593C35.5655 1.62495 35.7229 1.97361 35.7229 2.441C35.7229 2.70038 35.6697 2.94378 35.5627 3.17211C35.4565 3.40044 35.3159 3.59703 35.1397 3.76417C34.9652 3.93016 34.7595 4.06214 34.5284 4.161C34.2953 4.26078 34.0485 4.30805 33.7853 4.30805Z" fill="white"/>
<path d="M37.2433 3.06984L40.1614 2.62573L39.4449 5.49264H42.5701L42.0058 7.74808H38.8993L38.0719 11.1502C37.9957 11.4338 37.9524 11.6986 37.9403 11.9448C37.9266 12.1921 37.9585 12.4044 38.0338 12.5832C38.1086 12.7624 38.2432 12.9006 38.4384 12.9983C38.6327 13.0976 38.911 13.1476 39.2759 13.1476C39.5764 13.1476 39.8693 13.1195 40.1524 13.0638C40.4339 13.009 40.719 12.9328 41.0077 12.833L41.2155 14.9418C40.839 15.0775 40.4313 15.1941 39.992 15.2923C39.552 15.3919 39.0311 15.4398 38.4291 15.4398C37.5636 15.4398 36.8925 15.3136 36.4144 15.0622C35.937 14.809 35.5995 14.463 35.3975 14.0251C35.1984 13.5888 35.1093 13.0858 35.1342 12.519C35.16 11.951 35.2472 11.3539 35.3975 10.725L37.2433 3.06984Z" fill="white"/>
<path d="M42.4474 11.3353C42.4474 10.4976 42.5855 9.70756 42.8613 8.968C43.1368 8.22776 43.5335 7.58044 44.0484 7.02491C44.5613 6.47213 45.1864 6.03419 45.922 5.7127C46.6541 5.39304 47.4739 5.23184 48.3774 5.23184C48.9429 5.23184 49.448 5.28436 49.8924 5.38962C50.3386 5.49579 50.7424 5.63302 51.1075 5.80518L50.1466 7.95148C49.8956 7.85147 49.6351 7.76333 49.3657 7.68342C49.0961 7.6019 48.7669 7.56263 48.3776 7.56263C47.4477 7.56263 46.7125 7.8775 46.1653 8.50518C45.6203 9.13331 45.3458 9.97882 45.3458 11.0394C45.3458 11.668 45.4839 12.1763 45.7609 12.5651C46.0366 12.954 46.5458 13.1473 47.2852 13.1473C47.6501 13.1473 48.0022 13.1099 48.3395 13.0368C48.6793 12.9629 48.9794 12.8697 49.2437 12.7596L49.4517 14.9598C49.0993 15.0941 48.7107 15.2153 48.2844 15.3215C47.8572 15.424 47.3486 15.4772 46.759 15.4772C45.9806 15.4772 45.3216 15.3653 44.7826 15.145C44.2434 14.9212 43.7978 14.6242 43.4468 14.2479C43.094 13.8707 42.8407 13.4303 42.684 12.9247C42.5273 12.4197 42.4474 11.889 42.4474 11.3353Z" fill="white"/>
<path d="M54.8243 15.4772C54.1593 15.4772 53.5817 15.3777 53.0918 15.1806C52.6032 14.9836 52.1985 14.7071 51.8785 14.3486C51.5579 13.9919 51.3181 13.5693 51.1538 13.0823C50.9894 12.5955 50.9104 12.0564 50.9104 11.4657C50.9104 10.7248 51.0315 9.98407 51.2762 9.24542C51.5198 8.50518 51.8813 7.84006 52.3596 7.24891C52.8342 6.65685 53.4197 6.17279 54.1091 5.79536C54.7978 5.42044 55.5899 5.23184 56.4797 5.23184C57.1326 5.23184 57.7071 5.33162 58.2038 5.52867C58.6982 5.72526 59.1054 6.00405 59.4274 6.3607C59.7458 6.71918 59.9877 7.14 60.1504 7.62771C60.3143 8.11359 60.3952 8.65405 60.3952 9.24519C60.3952 9.98384 60.2757 10.7245 60.0386 11.4655C59.8013 12.2027 59.4492 12.8695 58.9843 13.462C58.5204 14.0531 57.9403 14.537 57.2434 14.9128C56.5475 15.2886 55.7405 15.4772 54.8243 15.4772ZM56.2168 7.56286C55.8038 7.56286 55.4386 7.68068 55.126 7.91334C54.8122 8.14875 54.5486 8.44467 54.3362 8.80155C54.1214 9.16003 53.9622 9.55093 53.8546 9.97585C53.7479 10.4017 53.6956 10.8042 53.6956 11.1867C53.6956 11.8039 53.797 12.2845 53.9961 12.6304C54.1981 12.9745 54.561 13.1476 55.0883 13.1476C55.5028 13.1476 55.8661 13.0307 56.1805 12.7955C56.4925 12.5619 56.7563 12.2658 56.9703 11.9082C57.1837 11.5516 57.3443 11.1595 57.4519 10.7339C57.5572 10.3094 57.6109 9.90461 57.6109 9.52284C57.6109 8.90727 57.51 8.42549 57.309 8.08003C57.1082 7.73593 56.7437 7.56286 56.2168 7.56286Z" fill="white"/>
<path d="M63.4313 15.2192H60.6428L62.9957 5.49308H65.8023L63.4313 15.2192ZM64.785 4.30805C64.3963 4.30805 64.044 4.19434 63.7316 3.96647C63.4178 3.73997 63.2602 3.39131 63.2602 2.9214C63.2602 2.66294 63.3144 2.42045 63.4206 2.19166C63.5268 1.96333 63.6684 1.76674 63.8445 1.5996C64.0196 1.43384 64.2253 1.3014 64.4563 1.20162C64.6878 1.10344 64.9356 1.05435 65.1987 1.05435C65.5882 1.05435 65.9401 1.16806 66.2535 1.39593C66.567 1.62495 66.7253 1.97361 66.7253 2.441C66.7253 2.70038 66.669 2.94378 66.5638 3.17211C66.4585 3.40044 66.3169 3.59703 66.1414 3.76417C65.9648 3.93016 65.7616 4.06214 65.5301 4.161C65.2968 4.26078 65.0495 4.30805 64.785 4.30805Z" fill="white"/>
<path d="M67.8102 5.93539C68.0217 5.87465 68.2579 5.80159 68.5147 5.72213C68.7725 5.64267 69.0605 5.56869 69.3822 5.50202C69.7004 5.43329 70.0595 5.37758 70.4544 5.33443C70.8493 5.29036 71.2992 5.26889 71.7992 5.26889C73.2686 5.26889 74.2816 5.68925 74.8408 6.52745C75.3996 7.36565 75.4962 8.51277 75.1337 9.96678L73.852 15.2184H71.0475L72.2896 10.0773C72.3654 9.75626 72.4249 9.44596 72.4688 9.14273C72.5132 8.84225 72.5107 8.57739 72.4588 8.34815C72.4093 8.12165 72.2927 7.93624 72.1116 7.79262C71.9277 7.65129 71.65 7.58028 71.2732 7.58028C70.9099 7.58028 70.5404 7.61864 70.1631 7.69262L68.3369 15.2181H65.5312L67.8102 5.93539Z" fill="white"/>
</svg>
