<svg width="65" height="12" viewBox="0 0 65 12" fill="none" xmlns="http://www.w3.org/2000/svg">
<path d="M60.5393 5.47618C60.1758 5.72756 59.6481 5.85183 58.9262 5.85183H58.6129H58.2102L58.7592 2.91035H59.0375H59.2857C59.885 2.91035 60.3227 3.00603 60.6244 3.20022C60.8601 3.35252 61.1394 3.654 61.1394 4.2261C61.1394 4.9154 60.8144 5.28624 60.5393 5.47618ZM17.8286 9.16783H12.2878L12.6459 7.24515H16.1213L16.5163 5.07959H13.0742L13.407 3.17673H18.9381L17.8286 9.16783ZM63.5242 1.52637C62.7095 0.972384 61.4767 0.693268 59.8605 0.693268H55.6274L54.0539 9.16811H48.5088L48.8643 7.24543H52.2051L52.6023 5.08581L49.2635 5.09176L49.6211 3.17729H53.0614L53.5191 0.693551H46.5306L45.037 8.7333H42.4745L43.9789 0.693551H40.3254L38.8319 8.7333H36.3332L37.8391 0.693551H34.1893L32.6118 9.16839H27.0273L27.3791 7.24572H30.735L31.1302 5.09856L27.7795 5.09544L28.1353 3.17729H31.6139L32.0693 0.693551H10.2971L9.05776 7.40962L6.58881 0.693268H2.79949L0.76001 11.6533H4.37868L5.61287 4.75263L8.00906 11.6533H20.9793L22.556 3.17701H24.5854L23.008 11.6533H57.1367L58.1252 6.30221L59.7275 11.6533H63.3481L61.6893 7.2811L62.068 7.19986C62.9024 7.02265 63.5556 6.64077 64.0088 6.06867C64.4628 5.49119 64.6933 4.7498 64.6933 3.85923C64.6936 2.82203 64.3118 2.05941 63.5242 1.52637Z" fill="white"/>
</svg>
