<svg width="40" height="14" viewBox="0 0 40 14" fill="none" xmlns="http://www.w3.org/2000/svg">
<path fill-rule="evenodd" clip-rule="evenodd" d="M28.8234 3.85197C29.7138 3.85197 30.4354 3.1644 30.4354 2.31653C30.4354 1.46817 29.7138 0.779938 28.8234 0.779938C27.9341 0.779938 27.2128 1.46817 27.2128 2.31653C27.2128 3.1644 27.9341 3.85197 28.8234 3.85197ZM16.4776 4.68118C16.4049 4.85534 15.8814 6.26498 14.6152 7.72597V1.47906L11.2416 2.11463V13.4378H14.6152V9.93775C15.5923 11.3347 16.0748 13.4378 16.0748 13.4378H20.1157C19.716 11.8539 17.9676 8.93322 17.9676 8.93322C19.5368 7.03675 20.226 5.01597 20.3357 4.68118H16.4776ZM25.3468 4.56298C22.325 4.65543 20.7911 5.9477 20.7911 8.51655V13.4378H24.0877V9.42467C24.0877 7.88643 24.299 7.22709 26.2139 7.16419V4.60805C25.8916 4.54284 25.3468 4.56298 25.3468 4.56298ZM5.58367 5.92805C5.17045 5.90213 4.21378 5.8432 4.21378 5.02224C4.21378 4.03158 5.59111 4.03158 6.10772 4.03158C7.01607 4.03158 8.19252 4.28746 9.03263 4.52699C9.03263 4.52699 9.50127 4.68448 9.90011 4.84577L9.93717 4.85534V2.1422L9.88626 2.12784C8.89478 1.79718 7.74189 1.47906 5.60445 1.47906C1.91909 1.47906 0.613281 3.5256 0.613281 5.27878C0.613281 6.28942 1.06772 8.66793 5.28839 8.9423C5.64619 8.96327 6.59576 9.01543 6.59576 9.86379C6.59576 10.5642 5.81833 10.9773 4.51079 10.9773C3.07787 10.9773 1.68789 10.629 0.843616 10.2986V13.093C2.10751 13.4088 3.5323 13.5666 5.20214 13.5666C8.80559 13.5666 10.4195 11.6303 10.4195 9.71126C10.4195 7.5353 8.61353 6.12153 5.58367 5.92805ZM27.1893 13.4378H30.4592V4.69108H27.1893V13.4378ZM36.6162 2.03671V13.4378H39.8866V1.47906L36.6162 2.03671ZM31.8443 2.03671L35.1116 1.47906V13.4378H31.8443V2.03671Z" fill="white"/>
</svg>
