<svg width="18" height="18" viewBox="0 0 18 18" fill="none" xmlns="http://www.w3.org/2000/svg">
<circle cx="9" cy="9" r="9" fill="white"/>
<path fill-rule="evenodd" clip-rule="evenodd" d="M17.0033 10.9958C15.9013 15.4155 11.4241 18.105 7.00345 17.0031C2.58482 15.9012 -0.105241 11.4246 0.997031 7.00517C2.09853 2.585 6.57543 -0.105006 10.9948 0.996879C15.4153 2.09876 18.1051 6.57591 17.0031 10.9958H17.0033Z" fill="#8DC351"/>
<path fill-rule="evenodd" clip-rule="evenodd" d="M11.4999 6.36627C11.096 5.34832 10.1022 5.24949 8.94726 5.4676L8.52498 4.01654L7.65258 4.26311L8.06375 5.67592C7.83469 5.74059 7.60164 5.81137 7.37015 5.88185L6.95644 4.45963L6.08469 4.70583L6.50649 6.15658C6.31879 6.21382 6.13438 6.26975 5.95359 6.32094L5.95216 6.31648L4.74905 6.65584L5.02378 7.59912C5.02378 7.59912 5.66426 7.40477 5.65705 7.4198C6.01037 7.32012 6.18601 7.49522 6.27139 7.66513L6.7525 9.31818C6.77692 9.31143 6.80902 9.30348 6.84649 9.2983L6.7546 9.32432L7.42804 11.6403C7.4453 11.7573 7.43218 11.9553 7.18547 12.0254C7.19955 12.0323 6.55139 12.2043 6.55139 12.2043L6.68517 13.3083L7.82043 12.9876C7.94862 12.9515 8.07593 12.9171 8.20184 12.883L8.20203 12.8829C8.28359 12.8609 8.36457 12.839 8.44482 12.8169L8.87237 14.2846L9.74369 14.0386L9.32134 12.5865C9.5618 12.524 9.79388 12.4606 10.0198 12.3965L10.4401 13.842L11.3122 13.5956L10.8862 12.1305C12.3278 11.6311 13.2455 10.967 12.9668 9.53704C12.743 8.38513 12.0758 8.03131 11.1844 8.06378C11.614 7.65974 11.7964 7.11099 11.4997 6.36639L11.4999 6.36627ZM11.1934 9.8504C11.4865 10.857 9.9182 11.2759 9.20126 11.4675C9.13706 11.4846 9.07968 11.4999 9.03108 11.5137L8.46548 9.56915C8.52491 9.55238 8.59658 9.53027 8.67777 9.50523C9.40444 9.28105 10.8936 8.82163 11.1936 9.85027L11.1934 9.8504ZM8.34899 8.63804C8.94797 8.47956 10.2536 8.1341 9.98769 7.21945C9.71554 6.2838 8.47529 6.6705 7.86956 6.85936C7.80147 6.88059 7.74139 6.89932 7.69161 6.91339L8.20474 8.67696C8.24583 8.66534 8.29448 8.65247 8.34899 8.63804Z" fill="white"/>
</svg>
