<svg width="18" height="18" viewBox="0 0 18 18" fill="none" xmlns="http://www.w3.org/2000/svg">
<circle cx="9" cy="9" r="9" fill="white"/>
<path fill-rule="evenodd" clip-rule="evenodd" d="M17.0033 10.9958C15.9013 15.4155 11.4241 18.105 7.00345 17.0031C2.58482 15.9012 -0.105241 11.4246 0.997031 7.00517C2.09853 2.585 6.57543 -0.105006 10.9948 0.996879C15.4153 2.09876 18.1051 6.57591 17.0031 10.9958H17.0033Z" fill="#F7931A"/>
<path fill-rule="evenodd" clip-rule="evenodd" d="M12.5158 8.13609C12.6749 7.05255 11.8637 6.47006 10.7544 6.08148L11.1142 4.61368L10.2354 4.39102L9.88509 5.82014C9.65438 5.76161 9.41716 5.70639 9.18145 5.65168L9.53427 4.21314L8.65621 3.99048L8.29614 5.45777C8.10496 5.41349 7.91729 5.36972 7.73512 5.32366L7.73612 5.31908L6.52451 5.01142L6.2908 5.96569C6.2908 5.96569 6.94264 6.11761 6.92888 6.12703C7.28471 6.21737 7.34927 6.45683 7.33826 6.64666L6.92838 8.3188C6.9529 8.32516 6.98468 8.33432 7.01972 8.34858L6.92713 8.32516L6.35235 10.6676C6.30881 10.7775 6.19846 10.9424 5.94973 10.8798C5.95849 10.8928 5.31115 10.7177 5.31115 10.7177L4.875 11.7407L6.01855 12.0305C6.14759 12.0634 6.27506 12.0972 6.40113 12.1307L6.40132 12.1307C6.483 12.1524 6.56408 12.1739 6.64462 12.1949L6.28104 13.6798L7.15859 13.9024L7.51892 12.4336C7.75839 12.4998 7.99111 12.5609 8.21881 12.6184L7.85999 14.0803L8.73854 14.303L9.10212 12.8212C10.6002 13.1095 11.727 12.9932 12.2007 11.6155C12.5828 10.506 12.1819 9.866 11.3937 9.44841C11.9678 9.31328 12.4001 8.92928 12.5155 8.13609H12.5158ZM10.5082 11.0001C10.2588 12.0185 8.69108 11.5971 7.97443 11.4045C7.91026 11.3873 7.85291 11.3718 7.80394 11.3595L8.28638 9.39264C8.34623 9.40783 8.41936 9.42452 8.50219 9.44342C9.24359 9.61261 10.763 9.95934 10.5084 11.0001H10.5082ZM8.65105 8.52803C9.24902 8.69026 10.5524 9.04389 10.7795 8.11884C11.0116 7.17247 9.7442 6.88724 9.1252 6.74793C9.05561 6.73227 8.99422 6.71845 8.94407 6.70575L8.50667 8.4896C8.54806 8.50009 8.59664 8.51327 8.65105 8.52803Z" fill="white"/>
</svg>
