<svg width="18" height="18" viewBox="0 0 18 18" fill="none" xmlns="http://www.w3.org/2000/svg">
<circle cx="9" cy="9" r="9" fill="white"/>
<g clip-path="url(#clip0)">
<path d="M9.00003 16.357C13.0632 16.357 16.3571 13.0631 16.3571 8.9999C16.3571 4.9367 13.0632 1.64282 9.00003 1.64282C4.93682 1.64282 1.64294 4.9367 1.64294 8.9999C1.64294 13.0631 4.93682 16.357 9.00003 16.357Z" fill="white"/>
<path d="M9 0.75C7.36831 0.75 5.77326 1.23385 4.41655 2.14038C3.05984 3.0469 2.00242 4.33537 1.378 5.84286C0.753575 7.35035 0.590197 9.00915 0.908525 10.6095C1.22685 12.2098 2.01259 13.6798 3.16637 14.8336C4.32016 15.9874 5.79017 16.7732 7.39051 17.0915C8.99085 17.4098 10.6497 17.2464 12.1571 16.622C13.6646 15.9976 14.9531 14.9402 15.8596 13.5835C16.7661 12.2267 17.25 10.6317 17.25 9C17.2532 7.91974 17.0435 6.84944 16.633 5.8502C16.2225 4.85097 15.6192 3.94237 14.8576 3.17629C14.096 2.4102 13.1909 1.80164 12.1941 1.38533C11.1973 0.96903 10.1282 0.753143 9.04795 0.75H9ZM9.13984 9.27966L8.28088 12.1762H12.8753C12.9057 12.1751 12.9361 12.18 12.9646 12.1907C12.9931 12.2014 13.0193 12.2175 13.0415 12.2383C13.0638 12.2591 13.0817 12.2841 13.0944 12.3118C13.107 12.3395 13.114 12.3694 13.115 12.3999V12.4758L12.7155 13.8541C12.6979 13.9193 12.6586 13.9766 12.6042 14.0165C12.5497 14.0564 12.4833 14.0766 12.4159 14.0738H5.38439L6.56296 10.0587L5.24456 10.4582L5.54419 9.53935L6.8626 9.13983L8.52059 3.50666C8.53884 3.44184 8.57825 3.385 8.63255 3.34518C8.68685 3.30536 8.75292 3.28485 8.82022 3.28692H10.5981C10.6285 3.28586 10.6588 3.2908 10.6874 3.30147C10.7159 3.31214 10.742 3.32832 10.7643 3.3491C10.7866 3.36988 10.8045 3.39484 10.8171 3.42256C10.8297 3.45028 10.8367 3.48022 10.8378 3.51065V3.58656L9.43947 8.3408L10.7579 7.94128L10.4782 8.90012L9.13984 9.27966Z" fill="#345D9D"/>
</g>
<defs>
<clipPath id="clip0">
<rect width="16.5" height="16.5" fill="white" transform="translate(0.75 0.75)"/>
</clipPath>
</defs>
</svg>
