<svg width="18" height="18" viewBox="0 0 18 18" fill="none" xmlns="http://www.w3.org/2000/svg">
<circle cx="9" cy="9" r="9" fill="white"/>
<g clip-path="url(#clip0)">
<path d="M9 0.75C13.5561 0.75 17.25 4.44385 17.25 9C17.25 13.5561 13.556 17.25 9 17.25C4.44402 17.25 0.75 13.5571 0.75 9C0.75 4.44286 4.44336 0.75 9 0.75Z" fill="#53AE94"/>
<path d="M10.0182 7.90069V6.67342H12.8247V4.80347H5.18253V6.67342H7.98935V7.8997C5.70822 8.00448 3.99304 8.45625 3.99304 8.99745C3.99304 9.53865 5.70905 9.99042 7.98935 10.0959V14.027H10.0189V10.0955C12.2959 9.99042 14.0076 9.53898 14.0076 8.99827C14.0076 8.45757 12.2959 8.00613 10.0189 7.90102L10.0182 7.90069ZM10.0189 9.76256V9.76157C9.9616 9.7652 9.66741 9.78285 9.01236 9.78285C8.48864 9.78285 8.1202 9.768 7.99034 9.76124V9.76289C5.97503 9.67362 4.47072 9.32266 4.47072 8.90274C4.47072 8.48281 5.97519 8.13235 7.99034 8.04292V9.41325C8.12234 9.42232 8.49986 9.4446 9.02093 9.4446C9.64678 9.4446 9.96144 9.41853 10.0192 9.41325V8.04292C12.0305 8.13252 13.5314 8.4838 13.5314 8.90224C13.5314 9.32068 12.0299 9.67214 10.0192 9.76173" fill="white"/>
</g>
<defs>
<clipPath id="clip0">
<rect width="16.5" height="16.5" fill="white" transform="translate(0.75 0.75)"/>
</clipPath>
</defs>
</svg>
