<svg width="26" height="22" viewBox="0 0 26 22" fill="none" xmlns="http://www.w3.org/2000/svg">
<mask id="mask0" mask-type="alpha" maskUnits="userSpaceOnUse" x="0" y="0" width="26" height="22">
<path d="M26 18.6154C26 20.4845 24.7065 22 23.1111 22H2.88889C1.2935 22 0 20.4845 0 18.6154V3.38462C0 1.51546 1.2935 0 2.88889 0H23.1111C24.7065 0 26 1.51546 26 3.38462V18.6154Z" fill="#EEEEEE"/>
</mask>
<g mask="url(#mask0)">
<path d="M1.00659 -1C-0.0932905 -1 -0.984863 0.228228 -0.984863 1.74343V20.2566C-0.984863 21.7717 -0.0932905 23 1.00659 23H7.87877V-1H1.00659Z" fill="#41479B"/>
<path d="M17.7274 -1H7.87891V23H17.7274V-1Z" fill="#F5F5F5"/>
<path d="M24.5995 -1H17.7273V23H24.5995C25.6993 23 26.5909 21.7718 26.5909 20.2566V1.74344C26.5909 0.228232 25.6994 -1 24.5995 -1Z" fill="#FF4B55"/>
</g>
</svg>
