<svg width="26" height="22" viewBox="0 0 26 22" fill="none" xmlns="http://www.w3.org/2000/svg">
<mask id="mask0" mask-type="alpha" maskUnits="userSpaceOnUse" x="0" y="0" width="26" height="22">
<path d="M26 18.6154C26 20.4845 24.7065 22 23.1111 22H2.88889C1.2935 22 0 20.4845 0 18.6154V3.38462C0 1.51546 1.2935 0 2.88889 0H23.1111C24.7065 0 26 1.51546 26 3.38462V18.6154Z" fill="#EEEEEE"/>
</mask>
<g mask="url(#mask0)">
<path d="M1.44914 -1C0.104837 -1 -0.984863 0.228228 -0.984863 1.74343V20.2566C-0.984863 21.7717 0.104837 23 1.44914 23H9.84847V-1H1.44914Z" fill="#02934D"/>
<path d="M22.8292 -1H9.84839V23H22.8292C24.9066 23 26.5908 21.7718 26.5908 20.2566V1.74344C26.5908 0.228232 24.9067 -1 22.8292 -1Z" fill="#DB1B1B"/>
<path d="M9.84855 5C8.67993 5 7.53756 5.35184 6.56586 6.01103C5.59416 6.67022 4.83678 7.60716 4.38947 8.70339C3.94216 9.79962 3.82501 11.0059 4.05284 12.1697C4.28067 13.3336 4.84324 14.4027 5.66942 15.2419C6.4956 16.0811 7.5483 16.6527 8.6944 16.8844C9.84051 17.1162 11.0286 16.9977 12.1083 16.5439C13.1881 16.0901 14.1112 15.3214 14.7607 14.335C15.4103 13.3486 15.7572 12.1888 15.7576 11.0022C15.7563 9.41112 15.1334 7.88553 14.0256 6.76024C12.9178 5.63496 11.4155 5.0019 9.84855 5ZM14.9244 10.5853H10.8348L10.9165 10.5023L12.4033 8.99208L13.7246 7.65051C14.4196 8.47564 14.8396 9.50294 14.9244 10.5853ZM10.257 5.84608C11.2732 5.92848 12.2412 6.3203 13.0346 6.97032L13.1435 7.06323L10.257 9.99797V5.84608ZM9.44008 5.84608V9.99797L9.29304 9.84922L7.65919 8.18747L6.55253 7.06323L6.66145 6.97032C7.45508 6.32009 8.42353 5.92826 9.44008 5.84608ZM5.97251 7.65051L7.29429 8.99208L8.7811 10.5045L8.86279 10.5875H4.77272C4.85734 9.50444 5.27732 8.47638 5.97251 7.65051ZM4.77435 11.4148H8.86442L8.29802 11.9893L7.51759 12.7812L6.70066 13.6107L5.97469 14.3484C5.27969 13.5235 4.85903 12.4968 4.77272 11.4148H4.77435ZM9.44172 16.1534C8.37628 16.0672 7.36491 15.6414 6.55198 14.9368L7.17284 14.3058L7.97615 13.4907L9.44008 12.0031L9.44172 16.1534ZM10.2586 16.1534V12.0004L13.1489 14.9357C12.3355 15.6411 11.3233 16.0673 10.257 16.1534H10.2586ZM13.7262 14.3489L12.1833 12.7818L11.404 11.9921L10.8348 11.4148H14.9244C14.839 12.4968 14.4191 13.5237 13.7246 14.3489H13.7262Z" fill="#F6C752"/>
<path d="M6.74417 6.96536C6.62144 6.96551 6.50378 7.01508 6.417 7.1032C6.33021 7.19132 6.28139 7.31079 6.28125 7.43541V12.2985H6.3014C6.39482 13.1876 6.80878 14.0102 7.46361 14.608C8.11844 15.2058 8.96789 15.5367 9.84849 15.5368C10.7291 15.5368 11.5786 15.206 12.2335 14.6081C12.8884 14.0103 13.3023 13.1876 13.3956 12.2985H13.4157V7.43264C13.415 7.30846 13.3659 7.18961 13.2792 7.10206C13.1924 7.0145 13.0751 6.96536 12.9528 6.96536H6.74417Z" fill="#E83838"/>
<path d="M7.74102 8.18193C7.62258 8.18193 7.50899 8.22971 7.42524 8.31475C7.34148 8.39979 7.29443 8.51513 7.29443 8.63539V11.9976H7.30859C7.37466 12.635 7.67073 13.2249 8.13975 13.6538C8.60877 14.0826 9.21753 14.32 9.84869 14.3202C10.4799 14.32 11.0887 14.0827 11.5578 13.6538C12.0269 13.225 12.3231 12.635 12.3893 11.9976H12.4035V8.63262C12.4035 8.51236 12.3564 8.39702 12.2727 8.31198C12.1889 8.22694 12.0753 8.17917 11.9569 8.17917L7.74102 8.18193Z" fill="white"/>
<path d="M9.33622 8.70453C9.30733 8.70453 9.27962 8.71618 9.2592 8.73692C9.23877 8.75766 9.22729 8.7858 9.22729 8.81513V9.63356H9.23111C9.24737 9.78839 9.31944 9.93164 9.43345 10.0358C9.54746 10.1399 9.69536 10.1975 9.8487 10.1976C10.0021 10.1977 10.1502 10.1401 10.2643 10.036C10.3784 9.93181 10.4506 9.78848 10.4668 9.63356H10.4701V8.81513C10.4701 8.7858 10.4586 8.75766 10.4382 8.73692C10.4178 8.71618 10.3901 8.70453 10.3612 8.70453H9.33622Z" fill="#3E436D"/>
<path d="M9.33622 12.4052C9.30733 12.4052 9.27962 12.4168 9.2592 12.4375C9.23877 12.4583 9.22729 12.4864 9.22729 12.5158V13.3347H9.23111C9.24749 13.4895 9.31962 13.6326 9.43361 13.7366C9.54761 13.8406 9.69544 13.8982 9.8487 13.8982C10.0021 13.8983 10.1502 13.8407 10.2643 13.7366C10.3784 13.6324 10.4506 13.4891 10.4668 13.3342H10.4701V12.5152C10.4701 12.4859 10.4586 12.4577 10.4382 12.437C10.4178 12.4163 10.3901 12.4046 10.3612 12.4046L9.33622 12.4052Z" fill="#3E436D"/>
<path d="M9.33622 10.5045C9.30733 10.5045 9.27962 10.5162 9.2592 10.5369C9.23877 10.5577 9.22729 10.5858 9.22729 10.6151V11.4336H9.23111C9.24737 11.5884 9.31944 11.7317 9.43345 11.8358C9.54746 11.9399 9.69536 11.9976 9.8487 11.9976C10.0021 11.9977 10.1502 11.9401 10.2643 11.836C10.3784 11.7318 10.4506 11.5885 10.4668 11.4336H10.4701V10.6151C10.4701 10.5858 10.4586 10.5577 10.4382 10.5369C10.4178 10.5162 10.3901 10.5045 10.3612 10.5045H9.33622Z" fill="#3E436D"/>
<path d="M7.86576 10.5045C7.83687 10.5045 7.80917 10.5162 7.78874 10.5369C7.76831 10.5577 7.75684 10.5858 7.75684 10.6151V11.4336H7.76065C7.77691 11.5884 7.84898 11.7317 7.96299 11.8358C8.077 11.9399 8.2249 11.9976 8.37824 11.9976C8.53168 11.9977 8.67972 11.9401 8.79384 11.836C8.90797 11.7318 8.98011 11.5885 8.99638 11.4336H8.99965V10.6151C8.99965 10.5858 8.98818 10.5577 8.96775 10.5369C8.94732 10.5162 8.91962 10.5045 8.89073 10.5045H7.86576Z" fill="#3E436D"/>
<path d="M10.834 10.5045C10.8051 10.5045 10.7774 10.5162 10.757 10.5369C10.7366 10.5577 10.7251 10.5858 10.7251 10.6151V11.4336H10.7289C10.7452 11.5884 10.8172 11.7317 10.9312 11.8358C11.0453 11.9399 11.1932 11.9976 11.3465 11.9976C11.4999 11.9977 11.648 11.9401 11.7621 11.836C11.8762 11.7318 11.9484 11.5885 11.9646 11.4336H11.9679V10.6151C11.9679 10.5858 11.9564 10.5577 11.936 10.5369C11.9156 10.5162 11.8879 10.5045 11.859 10.5045H10.834Z" fill="#3E436D"/>
</g>
</svg>
