<svg width="26" height="22" viewBox="0 0 26 22" fill="none" xmlns="http://www.w3.org/2000/svg">
<path d="M25.5992 1.69231C25.0987 0.684538 24.1778 0 23.1111 0H13V1.69231H25.5992ZM0 16.9231H26V18.6154H0V16.9231ZM13 10.1538H26V11.8462H13V10.1538ZM13 6.76923H26V8.46154H13V6.76923ZM0 13.5385H26V15.2308H0V13.5385ZM2.88889 22H23.1111C24.1778 22 25.0987 21.3155 25.5992 20.3077H0.400833C0.901333 21.3155 1.82217 22 2.88889 22ZM13 3.38462H26V5.07692H13V3.38462Z" fill="#ED1B2F"/>
<path d="M0.0491111 19.1899C0.0613889 19.2686 0.0751111 19.3473 0.0917222 19.4243C0.1105 19.5098 0.133611 19.5919 0.158167 19.6748C0.222444 19.8939 0.300444 20.1055 0.398667 20.3035L0.400833 20.3077H25.5992L25.6006 20.3043C25.6981 20.1072 25.7761 19.8956 25.8404 19.6773C25.8649 19.5936 25.8888 19.5098 25.9076 19.4226C25.9242 19.3465 25.9379 19.2686 25.9502 19.1899C25.9798 19.0038 26 18.8126 26 18.6154H0C0 18.8126 0.0202222 19.0029 0.0491111 19.1899ZM0 15.2308H26V16.9231H0V15.2308ZM0 11.8462V13.5385H26V11.8462H13H0ZM13 8.46155H26V10.1539H13V8.46155ZM13 5.07694H26V6.76925H13V5.07694ZM0 3.38463C0 3.18748 0.0216667 2.99794 0.0491111 2.81009C0.0202222 2.99709 0 3.18748 0 3.38463ZM0.400833 1.69232L0.398667 1.69655L0.400833 1.69232ZM0.0924444 2.57571C0.1105 2.4894 0.135778 2.40732 0.158889 2.3244C0.134333 2.40732 0.111222 2.49024 0.0924444 2.57571ZM13 3.38463H26C26 3.18748 25.9798 2.99624 25.9502 2.80924C25.9379 2.7314 25.9249 2.65355 25.9076 2.5774C25.8881 2.49024 25.8649 2.40563 25.8397 2.32186C25.7754 2.10355 25.6974 1.89286 25.5999 1.69571C25.6006 1.69486 25.5999 1.69317 25.5992 1.69232H13V3.38463Z" fill="white"/>
<path d="M13 0H2.88889C1.2935 0 0 1.51546 0 3.38462V11.8462H13V0Z" fill="#3E3CA3"/>
<path d="M1.44507 2.30663L1.8914 2.68655L1.72096 3.30001L2.16657 2.92094L2.6129 3.30001L2.44246 2.68655L2.88879 2.30663H2.33701L2.16657 1.69232L1.99685 2.30663H1.44507ZM2.88951 3.99894L3.33585 4.37886L3.1654 4.99232L3.61101 4.61324L4.05735 4.99232L3.8869 4.37886L4.33324 3.99894H3.78146L3.61101 3.38463L3.44129 3.99894H2.88951ZM5.7784 3.99894L6.22474 4.37886L6.05429 4.99232L6.4999 4.61324L6.94624 4.99232L6.77579 4.37886L7.22212 3.99894H6.67035L6.4999 3.38463L6.33018 3.99894H5.7784ZM8.66729 3.99894L9.11362 4.37886L8.94318 4.99232L9.38879 4.61324L9.83512 4.99232L9.66468 4.37886L10.111 3.99894H9.55924L9.38879 3.38463L9.21907 3.99894H8.66729ZM2.88951 7.38355L3.33585 7.76348L3.1654 8.37694L3.61101 7.99786L4.05735 8.37694L3.8869 7.76348L4.33324 7.38355H3.78146L3.61101 6.76925L3.44129 7.38355H2.88951ZM5.7784 7.38355L6.22474 7.76348L6.05429 8.37694L6.4999 7.99786L6.94624 8.37694L6.77579 7.76348L7.22212 7.38355H6.67035L6.4999 6.76925L6.33018 7.38355H5.7784ZM8.66729 7.38355L9.11362 7.76348L8.94318 8.37694L9.38879 7.99786L9.83512 8.37694L9.66468 7.76348L10.111 7.38355H9.55924L9.38879 6.76925L9.21907 7.38355H8.66729ZM4.33396 2.30663L4.78029 2.68655L4.60985 3.30001L5.05546 2.92094L5.50179 3.30001L5.33135 2.68655L5.77768 2.30663H5.2259L5.05546 1.69232L4.88574 2.30663H4.33396ZM7.22285 2.30663L7.66918 2.68655L7.49873 3.30001L7.94435 2.92094L8.39068 3.30001L8.22024 2.68655L8.66657 2.30663H8.11479L7.94435 1.69232L7.77462 2.30663H7.22285ZM10.1117 2.30663L10.5581 2.68655L10.3876 3.30001L10.8332 2.92094L11.2796 3.30001L11.1091 2.68655L11.5555 2.30663H11.0037L10.8332 1.69232L10.6635 2.30663H10.1117ZM1.44507 5.69124L1.8914 6.07117L1.72096 6.68463L2.16657 6.30555L2.6129 6.68463L2.44246 6.07117L2.88879 5.69124H2.33701L2.16657 5.07694L1.99685 5.69124H1.44507ZM4.60985 6.68463L5.05546 6.30555L5.50179 6.68463L5.33135 6.07117L5.77768 5.69124H5.2259L5.05546 5.07694L4.88574 5.69124H4.33396L4.78029 6.07117L4.60985 6.68463ZM7.22285 5.69124L7.66918 6.07117L7.49873 6.68463L7.94435 6.30555L8.39068 6.68463L8.22024 6.07117L8.66657 5.69124H8.11479L7.94435 5.07694L7.77462 5.69124H7.22285ZM10.1117 5.69124L10.5581 6.07117L10.3876 6.68463L10.8332 6.30555L11.2796 6.68463L11.1091 6.07117L11.5555 5.69124H11.0037L10.8332 5.07694L10.6635 5.69124H10.1117ZM1.44507 9.07586L1.8914 9.45578L1.72096 10.0692L2.16657 9.69017L2.6129 10.0692L2.44246 9.45578L2.88879 9.07586H2.33701L2.16657 8.46155L1.99685 9.07586H1.44507ZM4.60985 10.0692L5.05546 9.69017L5.50179 10.0692L5.33135 9.45578L5.77768 9.07586H5.2259L5.05546 8.46155L4.88574 9.07586H4.33396L4.78029 9.45578L4.60985 10.0692ZM7.22285 9.07586L7.66918 9.45578L7.49873 10.0692L7.94435 9.69017L8.39068 10.0692L8.22024 9.45578L8.66657 9.07586H8.11479L7.94435 8.46155L7.77462 9.07586H7.22285ZM10.1117 9.07586L10.5581 9.45578L10.3876 10.0692L10.8332 9.69017L11.2796 10.0692L11.1091 9.45578L11.5555 9.07586H11.0037L10.8332 8.46155L10.6635 9.07586H10.1117Z" fill="white"/>
</svg>
