<svg width="76" height="55" viewBox="0 0 76 55" fill="none" xmlns="http://www.w3.org/2000/svg">
<path fill-rule="evenodd" clip-rule="evenodd" d="M73.3819 39.2717C74.8279 39.2717 76.0001 38.0996 76.0001 36.6536V26.1812C76.0001 24.7352 74.8279 23.563 73.3819 23.563H70.7638C69.3179 23.563 68.1457 22.3909 68.1457 20.9449V8.72706V2.61812C68.1457 1.17217 66.9735 2.86104e-06 65.5276 2.86104e-06H59.4187C57.9727 2.86104e-06 56.8005 1.17217 56.8005 2.61812V6.10894C56.8005 7.55488 55.6284 8.72705 54.1824 8.72705H46.3281C44.8821 8.72705 43.71 7.55488 43.71 6.10894V2.61812C43.71 1.17217 42.5378 2.86104e-06 41.0919 2.86104e-06H34.9829C33.537 2.86104e-06 32.3648 1.17217 32.3648 2.61812V6.10894C32.3648 7.55488 31.1926 8.72705 29.7467 8.72705H21.8923C20.4464 8.72705 19.2742 7.55488 19.2742 6.10894V2.61812C19.2742 1.17217 18.1021 3.30234e-07 16.6561 2.6703e-07L10.5472 0C9.10123 -6.32042e-08 7.92906 1.17217 7.92906 2.61812L7.92906 8.72705L7.92906 20.9449C7.92905 22.3909 6.75688 23.563 5.31094 23.563H2.69283C1.24688 23.563 0.0747133 24.7352 0.0747126 26.1812L0.074707 36.6536C0.0747063 38.0996 1.24688 39.2717 2.69282 39.2717H5.31094C6.75688 39.2717 7.92905 40.4439 7.92905 41.8898L7.92905 51.4896C7.92905 52.9355 9.10122 54.1077 10.5472 54.1077H19.2742L56.8005 54.1077H65.5276C66.9735 54.1077 68.1457 52.9356 68.1457 51.4896V41.8898C68.1457 40.4439 69.3179 39.2717 70.7638 39.2717H73.3819ZM33.8276 39C33.3705 39 33 39.3705 33 39.8276V40C33 42.7614 35.2386 45 38 45C40.7614 45 43 42.7614 43 40V39.8276C43 39.3705 42.6295 39 42.1724 39H33.8276ZM57 33.6207C57 34.3825 56.3825 35 55.6207 35H46.3793C45.6175 35 45 34.3825 45 33.6207V31C45 27.6863 47.6863 25 51 25C54.3137 25 57 27.6863 57 31V33.6207ZM29.6207 35C30.3825 35 31 34.3825 31 33.6207V31C31 27.6863 28.3137 25 25 25C21.6863 25 19 27.6863 19 31V33.6207C19 34.3825 19.6175 35 20.3793 35H29.6207Z" fill="url(#paint0_linear)"/>
<defs>
<linearGradient id="paint0_linear" x1="76" y1="32.7264" x2="5.74723" y2="7.85434" gradientUnits="userSpaceOnUse">
<stop stop-color="#F0E70E"/>
<stop offset="1" stop-color="#A5EF09"/>
</linearGradient>
</defs>
</svg>
