<svg width="76" height="55" viewBox="0 0 76 55" fill="none" xmlns="http://www.w3.org/2000/svg">
<path fill-rule="evenodd" clip-rule="evenodd" d="M70.6891 39.2717C69.2432 39.2717 68.071 40.4439 68.071 41.8898V51.4896C68.071 52.9356 66.8988 54.1077 65.4529 54.1077H56.7797C56.7499 54.1077 56.7258 54.0836 56.7258 54.0539C56.7258 54.0242 56.7017 54.0001 56.672 54.0001L19.2533 54.0001C19.2236 54.0001 19.1995 54.0242 19.1995 54.0539C19.1995 54.0836 19.1754 54.1077 19.1457 54.1077H10.4725C9.02652 54.1077 7.85435 52.9355 7.85435 51.4896L7.85435 41.8898C7.85435 40.4439 6.68218 39.2717 5.23623 39.2717H2.61812C1.17217 39.2717 -7.6547e-07 38.0996 0 36.6536L5.54403e-06 26.1812C6.3095e-06 24.7352 1.17218 23.563 2.61812 23.563H5.23623C6.68218 23.563 7.85435 22.3909 7.85435 20.9449L7.85435 8.72705L7.85435 2.61812C7.85435 1.17217 9.02652 -6.32042e-08 10.4725 0L16.5814 2.6703e-07C18.0273 3.30234e-07 19.1995 1.17217 19.1995 2.61812V6.10894C19.1995 7.55488 20.3717 8.72705 21.8176 8.72705H29.672C31.1179 8.72705 32.2901 7.55488 32.2901 6.10894V2.61812C32.2901 1.17217 33.4623 2.86104e-06 34.9082 2.86104e-06H41.0171C42.4631 2.86104e-06 43.6353 1.17217 43.6353 2.61812V6.10894C43.6353 7.55488 44.8074 8.72705 46.2534 8.72705H54.1077C55.5537 8.72705 56.7258 7.55488 56.7258 6.10894V2.61812C56.7258 1.17217 57.898 2.86104e-06 59.344 2.86104e-06H65.4529C66.8988 2.86104e-06 68.071 1.17217 68.071 2.61812V8.72706V20.9449C68.071 22.3909 69.2432 23.563 70.6891 23.563H73.3072C74.7532 23.563 75.9253 24.7352 75.9253 26.1812V36.6536C75.9253 38.0996 74.7532 39.2717 73.3072 39.2717H70.6891ZM18.2222 31.3333V33.6667H21.2778V36H23.7222V33.6667H24.9444C25.7548 33.6667 26.532 33.3594 27.105 32.8124C27.6781 32.2654 28 31.5236 28 30.75C28 29.9765 27.6781 29.2346 27.105 28.6876C26.532 28.1406 25.7548 27.8333 24.9444 27.8333H20.0556C19.8935 27.8333 19.738 27.7719 19.6234 27.6625C19.5088 27.5531 19.4444 27.4047 19.4444 27.25C19.4444 27.0953 19.5088 26.9469 19.6234 26.8375C19.738 26.7281 19.8935 26.6667 20.0556 26.6667H26.7778V24.3333H23.7222V22H21.2778V24.3333H20.0556C19.2452 24.3333 18.468 24.6406 17.8949 25.1876C17.3219 25.7346 17 26.4765 17 27.25C17 28.0236 17.3219 28.7654 17.8949 29.3124C18.468 29.8594 19.2452 30.1667 20.0556 30.1667H24.9444C25.1065 30.1667 25.262 30.2281 25.3766 30.3375C25.4912 30.4469 25.5555 30.5953 25.5555 30.75C25.5555 30.9047 25.4912 31.0531 25.3766 31.1625C25.262 31.2719 25.1065 31.3333 24.9444 31.3333H18.2222ZM49.2222 33.6667V31.3333H55.9444C56.1065 31.3333 56.262 31.2719 56.3766 31.1625C56.4912 31.0531 56.5555 30.9047 56.5555 30.75C56.5555 30.5953 56.4912 30.4469 56.3766 30.3375C56.262 30.2281 56.1065 30.1667 55.9444 30.1667H51.0556C50.2452 30.1667 49.468 29.8594 48.8949 29.3124C48.3219 28.7654 48 28.0236 48 27.25C48 26.4765 48.3219 25.7346 48.8949 25.1876C49.468 24.6406 50.2452 24.3333 51.0556 24.3333H52.2778V22H54.7222V24.3333H57.7778V26.6667H51.0556C50.8935 26.6667 50.738 26.7281 50.6234 26.8375C50.5088 26.9469 50.4444 27.0953 50.4444 27.25C50.4444 27.4047 50.5088 27.5531 50.6234 27.6625C50.738 27.7719 50.8935 27.8333 51.0556 27.8333H55.9444C56.7548 27.8333 57.532 28.1406 58.105 28.6876C58.6781 29.2346 59 29.9765 59 30.75C59 31.5236 58.6781 32.2654 58.105 32.8124C57.532 33.3594 56.7548 33.6667 55.9444 33.6667H54.7222V36H52.2778V33.6667H49.2222ZM32.1034 38C31.494 38 31 38.494 31 39.1035C31 42.9123 34.0877 46 37.8965 46H38.1034C41.9123 46 45 42.9123 45 39.1035C45 38.494 44.506 38 43.8965 38H32.1034Z" fill="url(#paint0_linear)"/>
<defs>
<linearGradient id="paint0_linear" x1="75.9253" y1="32.5834" x2="5.74131" y2="7.62659" gradientUnits="userSpaceOnUse">
<stop stop-color="#F0E70E"/>
<stop offset="1" stop-color="#A5EF09"/>
</linearGradient>
</defs>
</svg>
