<svg width="76" height="58" viewBox="0 0 76 58" fill="none" xmlns="http://www.w3.org/2000/svg">
<path fill-rule="evenodd" clip-rule="evenodd" d="M68.1457 41.8898C68.1457 40.4439 69.3179 39.2717 70.7638 39.2717H73.3819C74.8279 39.2717 76.0001 38.0996 76.0001 36.6536V26.1812C76.0001 24.7352 74.8279 23.563 73.3819 23.563H70.7638C69.3179 23.563 68.1457 22.3909 68.1457 20.9449V8.72706V2.61812C68.1457 1.17217 66.9735 2.86104e-06 65.5276 2.86104e-06H59.4187C57.9727 2.86104e-06 56.8005 1.17217 56.8005 2.61812V6.10894C56.8005 7.55488 55.6284 8.72705 54.1824 8.72705H46.3281C44.8821 8.72705 43.71 7.55488 43.71 6.10894V2.61812C43.71 1.17217 42.5378 2.86104e-06 41.0919 2.86104e-06H34.9829C33.537 2.86104e-06 32.3648 1.17217 32.3648 2.61812V6.10894C32.3648 7.55488 31.1926 8.72705 29.7467 8.72705H21.8923C20.4464 8.72705 19.2742 7.55488 19.2742 6.10894V2.61812C19.2742 1.17217 18.1021 3.30234e-07 16.6561 2.6703e-07L10.5472 0C9.10123 -6.32042e-08 7.92906 1.17217 7.92906 2.61812L7.92906 8.72705L7.92906 20.9449C7.92905 22.3909 6.75688 23.563 5.31094 23.563H2.69283C1.24688 23.563 0.0747133 24.7352 0.0747126 26.1812L0.074707 36.6536C0.0747063 38.0996 1.24688 39.2717 2.69282 39.2717H5.31094C6.75688 39.2717 7.92905 40.4439 7.92905 41.8898L7.92905 51.4896C7.92905 52.9355 9.10122 54.1077 10.5472 54.1077H19.2742H30.0539C31.1288 54.1077 32.0001 54.979 32.0001 56.0539C32.0001 57.1287 32.8714 58.0001 33.9463 58.0001H42.0539C43.1288 58.0001 44.0001 57.1287 44.0001 56.0539C44.0001 54.979 44.8714 54.1077 45.9463 54.1077H56.8005H65.5276C66.9735 54.1077 68.1457 52.9356 68.1457 51.4896V41.8898ZM37.6363 45.9553L33.0915 44.8191C32.2878 44.6182 31.7992 43.8038 32.0001 43.0001C32.201 42.1964 33.0154 41.7077 33.8191 41.9086L37.3651 42.7952C37.782 42.8994 38.2182 42.8994 38.6351 42.7952L42.1811 41.9087C42.9848 41.7077 43.7992 42.1964 44.0001 43.0001C44.201 43.8038 43.7124 44.6182 42.9087 44.8191L38.3639 45.9553C38.125 46.015 37.8751 46.015 37.6363 45.9553ZM30 34.5862C30 34.8147 29.8147 35 29.5862 35H18.4138C18.1853 35 18 34.8147 18 34.5862C18 33.1579 19.1579 32 20.5862 32H27.4138C28.8421 32 30 33.1579 30 34.5862ZM57.5862 35C57.8147 35 58 34.8147 58 34.5862C58 33.1579 56.8421 32 55.4138 32H48.5862C47.1579 32 46 33.1579 46 34.5862C46 34.8147 46.1853 35 46.4138 35H57.5862Z" fill="url(#paint0_linear)"/>
<defs>
<linearGradient id="paint0_linear" x1="76" y1="32.7264" x2="5.74723" y2="7.85434" gradientUnits="userSpaceOnUse">
<stop stop-color="#F0E70E"/>
<stop offset="1" stop-color="#A5EF09"/>
</linearGradient>
</defs>
</svg>
