<svg width="1135" height="407" viewBox="0 0 1135 407" fill="none" xmlns="http://www.w3.org/2000/svg">
<path d="M1092 77C795.714 77.0003 735.204 379.895 42.9999 363.346L42 375.5L1091 368.346L1092 77Z" fill="url(#paint0_linear)" fill-opacity="0.2"/>
<g filter="url(#filter0_d)">
<path d="M43 363.346C735.204 379.895 795.714 77.0003 1092 77" stroke="url(#paint1_linear)" stroke-width="6" stroke-linecap="round"/>
</g>
<circle cx="43" cy="361" r="12.5" fill="white" stroke="url(#paint2_linear)" stroke-width="5"/>
<circle opacity="0.5" cx="418" cy="340" r="19" fill="url(#paint3_linear)"/>
<circle cx="418" cy="340" r="12.5" fill="white" stroke="url(#paint4_linear)" stroke-width="5"/>
<circle opacity="0.3" cx="739" cy="221" r="23" fill="url(#paint5_linear)"/>
<circle opacity="0.5" cx="739" cy="221" r="19" fill="url(#paint6_linear)"/>
<circle cx="739" cy="221" r="12.5" fill="white" stroke="url(#paint7_linear)" stroke-width="5"/>
<circle opacity="0.1" cx="1092" cy="77" r="27" fill="url(#paint8_linear)"/>
<circle opacity="0.3" cx="1092" cy="77" r="23" fill="url(#paint9_linear)"/>
<circle opacity="0.5" cx="1092" cy="77" r="19" fill="url(#paint10_linear)"/>
<circle cx="1092" cy="77" r="12.5" fill="white" stroke="url(#paint11_linear)" stroke-width="5"/>
<g filter="url(#filter1_dd)">
<path fill-rule="evenodd" clip-rule="evenodd" d="M43.9692 335.282C43.3436 336.239 42.3292 336.239 41.7035 335.282L41.4001 334.841C40.7163 333.846 40.3744 333.349 39.9277 332.989C39.5322 332.671 39.0786 332.432 38.5921 332.287C38.0427 332.122 37.4391 332.122 36.232 332.122H22.2932C20.1049 332.122 19.3114 331.852 18.5114 331.346C17.7114 330.839 17.0835 330.095 16.6557 329.147C16.2278 328.199 16 327.259 16 324.666V305.456C16 302.864 16.2278 301.923 16.6557 300.975C17.0835 300.028 17.7114 299.284 18.5114 298.777C19.3114 298.27 20.1049 298 22.2932 298H63.7068C65.8951 298 66.6886 298.27 67.4886 298.777C68.2886 299.284 68.9165 300.028 69.3443 300.975C69.7722 301.923 70 302.864 70 305.456V324.666C70 327.259 69.7722 328.199 69.3443 329.147C68.9165 330.095 68.2886 330.839 67.4886 331.346C66.6886 331.852 65.8951 332.122 63.7068 332.122H49.9762C47.5757 332.122 45.3291 333.304 43.9692 335.282Z" fill="#3A3A3C"/>
</g>
<path d="M33.0044 314.36C33.9858 314.52 34.7378 314.888 35.2604 315.464C35.7831 316.029 36.0444 316.733 36.0444 317.576C36.0444 318.227 35.8738 318.829 35.5324 319.384C35.1911 319.928 34.6684 320.365 33.9644 320.696C33.2711 321.027 32.4178 321.192 31.4044 321.192C30.6151 321.192 29.8364 321.091 29.0684 320.888C28.3111 320.675 27.6658 320.376 27.1324 319.992L28.1404 318.008C28.5671 318.328 29.0578 318.579 29.6124 318.76C30.1778 318.931 30.7538 319.016 31.3404 319.016C31.9911 319.016 32.5031 318.893 32.8764 318.648C33.2498 318.392 33.4364 318.035 33.4364 317.576C33.4364 316.659 32.7378 316.2 31.3404 316.2H30.1564V314.488L32.4604 311.88H27.6924V309.8H35.5324V311.48L33.0044 314.36ZM40.9249 314.008C42.5036 314.008 43.6663 314.323 44.4129 314.952C45.1703 315.581 45.5489 316.424 45.5489 317.48C45.5489 318.163 45.3783 318.787 45.0369 319.352C44.6956 319.907 44.1729 320.355 43.4689 320.696C42.7756 321.027 41.9169 321.192 40.8929 321.192C40.1036 321.192 39.3249 321.091 38.5569 320.888C37.7996 320.675 37.1543 320.376 36.6209 319.992L37.6449 318.008C38.0716 318.328 38.5623 318.579 39.1169 318.76C39.6716 318.931 40.2423 319.016 40.8289 319.016C41.4796 319.016 41.9916 318.888 42.3649 318.632C42.7383 318.376 42.9249 318.019 42.9249 317.56C42.9249 317.08 42.7276 316.717 42.3329 316.472C41.9489 316.227 41.2769 316.104 40.3169 316.104H37.4529L38.0289 309.8H44.8609V311.88H40.1889L40.0129 314.008H40.9249ZM49.0363 315.848C48.215 315.848 47.543 315.571 47.0203 315.016C46.5083 314.451 46.2523 313.699 46.2523 312.76C46.2523 311.821 46.5083 311.075 47.0203 310.52C47.543 309.955 48.215 309.672 49.0363 309.672C49.8576 309.672 50.5243 309.955 51.0363 310.52C51.5483 311.075 51.8043 311.821 51.8043 312.76C51.8043 313.699 51.5483 314.451 51.0363 315.016C50.5243 315.571 49.8576 315.848 49.0363 315.848ZM55.7083 309.8H57.6123L49.9643 321H48.0603L55.7083 309.8ZM49.0363 314.536C49.399 314.536 49.6816 314.387 49.8843 314.088C50.0976 313.789 50.2043 313.347 50.2043 312.76C50.2043 312.173 50.0976 311.731 49.8843 311.432C49.6816 311.133 49.399 310.984 49.0363 310.984C48.6843 310.984 48.4016 311.139 48.1883 311.448C47.975 311.747 47.8683 312.184 47.8683 312.76C47.8683 313.336 47.975 313.779 48.1883 314.088C48.4016 314.387 48.6843 314.536 49.0363 314.536ZM56.6363 321.128C56.103 321.128 55.623 321.005 55.1963 320.76C54.7803 320.504 54.455 320.141 54.2203 319.672C53.9856 319.203 53.8683 318.659 53.8683 318.04C53.8683 317.421 53.9856 316.877 54.2203 316.408C54.455 315.939 54.7803 315.581 55.1963 315.336C55.623 315.08 56.103 314.952 56.6363 314.952C57.4576 314.952 58.1243 315.235 58.6363 315.8C59.159 316.355 59.4203 317.101 59.4203 318.04C59.4203 318.979 59.159 319.731 58.6363 320.296C58.1243 320.851 57.4576 321.128 56.6363 321.128ZM56.6363 319.816C56.999 319.816 57.2816 319.667 57.4843 319.368C57.6976 319.059 57.8043 318.616 57.8043 318.04C57.8043 317.464 57.6976 317.027 57.4843 316.728C57.2816 316.419 56.999 316.264 56.6363 316.264C56.2843 316.264 56.0016 316.413 55.7883 316.712C55.575 317.011 55.4683 317.453 55.4683 318.04C55.4683 318.627 55.575 319.069 55.7883 319.368C56.0016 319.667 56.2843 319.816 56.6363 319.816Z" fill="white"/>
<g filter="url(#filter2_dd)">
<path fill-rule="evenodd" clip-rule="evenodd" d="M418.969 310.282C418.344 311.239 417.329 311.239 416.703 310.282L416.4 309.841C415.716 308.846 415.374 308.349 414.928 307.989C414.532 307.671 414.079 307.432 413.592 307.287C413.043 307.122 412.439 307.122 411.232 307.122H397.293C395.105 307.122 394.311 306.852 393.511 306.346C392.711 305.839 392.084 305.095 391.656 304.147C391.228 303.199 391 302.259 391 299.666V280.456C391 277.864 391.228 276.923 391.656 275.975C392.084 275.028 392.711 274.284 393.511 273.777C394.311 273.27 395.105 273 397.293 273H438.707C440.895 273 441.689 273.27 442.489 273.777C443.289 274.284 443.916 275.028 444.344 275.975C444.772 276.923 445 277.864 445 280.456V299.666C445 302.259 444.772 303.199 444.344 304.147C443.916 305.095 443.289 305.839 442.489 306.346C441.689 306.852 440.895 307.122 438.707 307.122H424.976C422.576 307.122 420.329 308.304 418.969 310.282Z" fill="#3A3A3C"/>
</g>
<path d="M410.919 293.648H409.095V296H406.567V293.648H400.535V291.904L405.815 284.8H408.535L403.639 291.536H406.647V289.44H409.095V291.536H410.919V293.648ZM416.494 296.192C415.566 296.192 414.74 295.963 414.014 295.504C413.289 295.045 412.718 294.384 412.302 293.52C411.897 292.645 411.694 291.605 411.694 290.4C411.694 289.195 411.897 288.16 412.302 287.296C412.718 286.421 413.289 285.755 414.014 285.296C414.74 284.837 415.566 284.608 416.494 284.608C417.422 284.608 418.249 284.837 418.974 285.296C419.7 285.755 420.265 286.421 420.67 287.296C421.086 288.16 421.294 289.195 421.294 290.4C421.294 291.605 421.086 292.645 420.67 293.52C420.265 294.384 419.7 295.045 418.974 295.504C418.249 295.963 417.422 296.192 416.494 296.192ZM416.494 294C417.177 294 417.71 293.707 418.094 293.12C418.489 292.533 418.686 291.627 418.686 290.4C418.686 289.173 418.489 288.267 418.094 287.68C417.71 287.093 417.177 286.8 416.494 286.8C415.822 286.8 415.289 287.093 414.894 287.68C414.51 288.267 414.318 289.173 414.318 290.4C414.318 291.627 414.51 292.533 414.894 293.12C415.289 293.707 415.822 294 416.494 294ZM425.146 290.848C424.324 290.848 423.652 290.571 423.13 290.016C422.618 289.451 422.362 288.699 422.362 287.76C422.362 286.821 422.618 286.075 423.13 285.52C423.652 284.955 424.324 284.672 425.146 284.672C425.967 284.672 426.634 284.955 427.146 285.52C427.658 286.075 427.914 286.821 427.914 287.76C427.914 288.699 427.658 289.451 427.146 290.016C426.634 290.571 425.967 290.848 425.146 290.848ZM431.818 284.8H433.722L426.074 296H424.17L431.818 284.8ZM425.146 289.536C425.508 289.536 425.791 289.387 425.994 289.088C426.207 288.789 426.314 288.347 426.314 287.76C426.314 287.173 426.207 286.731 425.994 286.432C425.791 286.133 425.508 285.984 425.146 285.984C424.794 285.984 424.511 286.139 424.298 286.448C424.084 286.747 423.978 287.184 423.978 287.76C423.978 288.336 424.084 288.779 424.298 289.088C424.511 289.387 424.794 289.536 425.146 289.536ZM432.746 296.128C432.212 296.128 431.732 296.005 431.306 295.76C430.89 295.504 430.564 295.141 430.33 294.672C430.095 294.203 429.978 293.659 429.978 293.04C429.978 292.421 430.095 291.877 430.33 291.408C430.564 290.939 430.89 290.581 431.306 290.336C431.732 290.08 432.212 289.952 432.746 289.952C433.567 289.952 434.234 290.235 434.746 290.8C435.268 291.355 435.53 292.101 435.53 293.04C435.53 293.979 435.268 294.731 434.746 295.296C434.234 295.851 433.567 296.128 432.746 296.128ZM432.746 294.816C433.108 294.816 433.391 294.667 433.594 294.368C433.807 294.059 433.914 293.616 433.914 293.04C433.914 292.464 433.807 292.027 433.594 291.728C433.391 291.419 433.108 291.264 432.746 291.264C432.394 291.264 432.111 291.413 431.898 291.712C431.684 292.011 431.578 292.453 431.578 293.04C431.578 293.627 431.684 294.069 431.898 294.368C432.111 294.667 432.394 294.816 432.746 294.816Z" fill="white"/>
<g filter="url(#filter3_dd)">
<path fill-rule="evenodd" clip-rule="evenodd" d="M739.969 188.282C739.344 189.239 738.329 189.239 737.703 188.282L737.4 187.841C736.716 186.846 736.374 186.349 735.928 185.989C735.532 185.671 735.079 185.432 734.592 185.287C734.043 185.122 733.439 185.122 732.232 185.122H718.293C716.105 185.122 715.311 184.852 714.511 184.346C713.711 183.839 713.084 183.095 712.656 182.147C712.228 181.199 712 180.259 712 177.666V158.456C712 155.864 712.228 154.923 712.656 153.975C713.084 153.028 713.711 152.284 714.511 151.777C715.311 151.27 716.105 151 718.293 151H759.707C761.895 151 762.689 151.27 763.489 151.777C764.289 152.284 764.916 153.028 765.344 153.975C765.772 154.923 766 155.864 766 158.456V177.666C766 180.259 765.772 181.199 765.344 182.147C764.916 183.095 764.289 183.839 763.489 184.346C762.689 184.852 761.895 185.122 759.707 185.122H745.976C743.576 185.122 741.329 186.304 739.969 188.282Z" fill="#3A3A3C"/>
</g>
<path d="M733.185 171.648H731.361V174H728.833V171.648H722.801V169.904L728.081 162.8H730.801L725.905 169.536H728.913V167.44H731.361V169.536H733.185V171.648ZM737.769 167.008C739.347 167.008 740.51 167.323 741.257 167.952C742.014 168.581 742.393 169.424 742.393 170.48C742.393 171.163 742.222 171.787 741.881 172.352C741.539 172.907 741.017 173.355 740.313 173.696C739.619 174.027 738.761 174.192 737.737 174.192C736.947 174.192 736.169 174.091 735.401 173.888C734.643 173.675 733.998 173.376 733.465 172.992L734.489 171.008C734.915 171.328 735.406 171.579 735.961 171.76C736.515 171.931 737.086 172.016 737.673 172.016C738.323 172.016 738.835 171.888 739.209 171.632C739.582 171.376 739.769 171.019 739.769 170.56C739.769 170.08 739.571 169.717 739.177 169.472C738.793 169.227 738.121 169.104 737.161 169.104H734.297L734.873 162.8H741.705V164.88H737.033L736.857 167.008H737.769ZM745.88 168.848C745.059 168.848 744.387 168.571 743.864 168.016C743.352 167.451 743.096 166.699 743.096 165.76C743.096 164.821 743.352 164.075 743.864 163.52C744.387 162.955 745.059 162.672 745.88 162.672C746.701 162.672 747.368 162.955 747.88 163.52C748.392 164.075 748.648 164.821 748.648 165.76C748.648 166.699 748.392 167.451 747.88 168.016C747.368 168.571 746.701 168.848 745.88 168.848ZM752.552 162.8H754.456L746.808 174H744.904L752.552 162.8ZM745.88 167.536C746.243 167.536 746.525 167.387 746.728 167.088C746.941 166.789 747.048 166.347 747.048 165.76C747.048 165.173 746.941 164.731 746.728 164.432C746.525 164.133 746.243 163.984 745.88 163.984C745.528 163.984 745.245 164.139 745.032 164.448C744.819 164.747 744.712 165.184 744.712 165.76C744.712 166.336 744.819 166.779 745.032 167.088C745.245 167.387 745.528 167.536 745.88 167.536ZM753.48 174.128C752.947 174.128 752.467 174.005 752.04 173.76C751.624 173.504 751.299 173.141 751.064 172.672C750.829 172.203 750.712 171.659 750.712 171.04C750.712 170.421 750.829 169.877 751.064 169.408C751.299 168.939 751.624 168.581 752.04 168.336C752.467 168.08 752.947 167.952 753.48 167.952C754.301 167.952 754.968 168.235 755.48 168.8C756.003 169.355 756.264 170.101 756.264 171.04C756.264 171.979 756.003 172.731 755.48 173.296C754.968 173.851 754.301 174.128 753.48 174.128ZM753.48 172.816C753.843 172.816 754.125 172.667 754.328 172.368C754.541 172.059 754.648 171.616 754.648 171.04C754.648 170.464 754.541 170.027 754.328 169.728C754.125 169.419 753.843 169.264 753.48 169.264C753.128 169.264 752.845 169.413 752.632 169.712C752.419 170.011 752.312 170.453 752.312 171.04C752.312 171.627 752.419 172.069 752.632 172.368C752.845 172.667 753.128 172.816 753.48 172.816Z" fill="white"/>
<g filter="url(#filter4_dd)">
<path fill-rule="evenodd" clip-rule="evenodd" d="M1092.97 44.2823C1092.34 45.2392 1091.33 45.2392 1090.7 44.2823L1090.4 43.8411C1089.72 42.8464 1089.37 42.349 1088.93 41.9893C1088.53 41.6708 1088.08 41.4322 1087.59 41.2867C1087.04 41.1224 1086.44 41.1224 1085.23 41.1224H1071.29C1069.1 41.1224 1068.31 40.8525 1067.51 40.3456C1066.71 39.8387 1066.08 39.0948 1065.66 38.1469C1065.23 37.1991 1065 36.2589 1065 33.6663V14.4562C1065 11.8635 1065.23 10.9233 1065.66 9.9755C1066.08 9.02765 1066.71 8.28378 1067.51 7.77687C1068.31 7.26995 1069.1 7 1071.29 7H1112.71C1114.9 7 1115.69 7.26995 1116.49 7.77687C1117.29 8.28378 1117.92 9.02765 1118.34 9.9755C1118.77 10.9233 1119 11.8635 1119 14.4562V33.6663C1119 36.2589 1118.77 37.1991 1118.34 38.1469C1117.92 39.0948 1117.29 39.8387 1116.49 40.3456C1115.69 40.8525 1114.9 41.1224 1112.71 41.1224H1098.98C1096.58 41.1224 1094.33 42.3042 1092.97 44.2823Z" fill="#3A3A3C"/>
</g>
<path d="M1079.76 23.008C1081.34 23.008 1082.5 23.3227 1083.25 23.952C1084.01 24.5813 1084.38 25.424 1084.38 26.48C1084.38 27.1627 1084.21 27.7867 1083.87 28.352C1083.53 28.9067 1083.01 29.3547 1082.3 29.696C1081.61 30.0267 1080.75 30.192 1079.73 30.192C1078.94 30.192 1078.16 30.0907 1077.39 29.888C1076.64 29.6747 1075.99 29.376 1075.46 28.992L1076.48 27.008C1076.91 27.328 1077.4 27.5787 1077.95 27.76C1078.51 27.9307 1079.08 28.016 1079.66 28.016C1080.32 28.016 1080.83 27.888 1081.2 27.632C1081.57 27.376 1081.76 27.0187 1081.76 26.56C1081.76 26.08 1081.56 25.7173 1081.17 25.472C1080.78 25.2267 1080.11 25.104 1079.15 25.104H1076.29L1076.86 18.8H1083.7V20.88H1079.02L1078.85 23.008H1079.76ZM1090.24 30.192C1089.31 30.192 1088.48 29.9627 1087.76 29.504C1087.03 29.0453 1086.46 28.384 1086.04 27.52C1085.64 26.6453 1085.44 25.6053 1085.44 24.4C1085.44 23.1947 1085.64 22.16 1086.04 21.296C1086.46 20.4213 1087.03 19.7547 1087.76 19.296C1088.48 18.8373 1089.31 18.608 1090.24 18.608C1091.16 18.608 1091.99 18.8373 1092.72 19.296C1093.44 19.7547 1094.01 20.4213 1094.41 21.296C1094.83 22.16 1095.04 23.1947 1095.04 24.4C1095.04 25.6053 1094.83 26.6453 1094.41 27.52C1094.01 28.384 1093.44 29.0453 1092.72 29.504C1091.99 29.9627 1091.16 30.192 1090.24 30.192ZM1090.24 28C1090.92 28 1091.45 27.7067 1091.84 27.12C1092.23 26.5333 1092.43 25.6267 1092.43 24.4C1092.43 23.1733 1092.23 22.2667 1091.84 21.68C1091.45 21.0933 1090.92 20.8 1090.24 20.8C1089.56 20.8 1089.03 21.0933 1088.64 21.68C1088.25 22.2667 1088.06 23.1733 1088.06 24.4C1088.06 25.6267 1088.25 26.5333 1088.64 27.12C1089.03 27.7067 1089.56 28 1090.24 28ZM1098.89 24.848C1098.07 24.848 1097.39 24.5707 1096.87 24.016C1096.36 23.4507 1096.1 22.6987 1096.1 21.76C1096.1 20.8213 1096.36 20.0747 1096.87 19.52C1097.39 18.9547 1098.07 18.672 1098.89 18.672C1099.71 18.672 1100.38 18.9547 1100.89 19.52C1101.4 20.0747 1101.66 20.8213 1101.66 21.76C1101.66 22.6987 1101.4 23.4507 1100.89 24.016C1100.38 24.5707 1099.71 24.848 1098.89 24.848ZM1105.56 18.8H1107.46L1099.82 30H1097.91L1105.56 18.8ZM1098.89 23.536C1099.25 23.536 1099.53 23.3867 1099.74 23.088C1099.95 22.7893 1100.06 22.3467 1100.06 21.76C1100.06 21.1733 1099.95 20.7307 1099.74 20.432C1099.53 20.1333 1099.25 19.984 1098.89 19.984C1098.54 19.984 1098.25 20.1387 1098.04 20.448C1097.83 20.7467 1097.72 21.184 1097.72 21.76C1097.72 22.336 1097.83 22.7787 1098.04 23.088C1098.25 23.3867 1098.54 23.536 1098.89 23.536ZM1106.49 30.128C1105.95 30.128 1105.47 30.0053 1105.05 29.76C1104.63 29.504 1104.31 29.1413 1104.07 28.672C1103.84 28.2027 1103.72 27.6587 1103.72 27.04C1103.72 26.4213 1103.84 25.8773 1104.07 25.408C1104.31 24.9387 1104.63 24.5813 1105.05 24.336C1105.47 24.08 1105.95 23.952 1106.49 23.952C1107.31 23.952 1107.98 24.2347 1108.49 24.8C1109.01 25.3547 1109.27 26.1013 1109.27 27.04C1109.27 27.9787 1109.01 28.7307 1108.49 29.296C1107.98 29.8507 1107.31 30.128 1106.49 30.128ZM1106.49 28.816C1106.85 28.816 1107.13 28.6667 1107.34 28.368C1107.55 28.0587 1107.66 27.616 1107.66 27.04C1107.66 26.464 1107.55 26.0267 1107.34 25.728C1107.13 25.4187 1106.85 25.264 1106.49 25.264C1106.14 25.264 1105.85 25.4133 1105.64 25.712C1105.43 26.0107 1105.32 26.4533 1105.32 27.04C1105.32 27.6267 1105.43 28.0693 1105.64 28.368C1105.85 28.6667 1106.14 28.816 1106.49 28.816Z" fill="white"/>
<defs>
<filter id="filter0_d" x="0" y="34" width="1135" height="373" filterUnits="userSpaceOnUse" color-interpolation-filters="sRGB">
<feFlood flood-opacity="0" result="BackgroundImageFix"/>
<feColorMatrix in="SourceAlpha" type="matrix" values="0 0 0 0 0 0 0 0 0 0 0 0 0 0 0 0 0 0 127 0" result="hardAlpha"/>
<feOffset/>
<feGaussianBlur stdDeviation="20"/>
<feComposite in2="hardAlpha" operator="out"/>
<feColorMatrix type="matrix" values="0 0 0 0 0.852833 0 0 0 0 0.991667 0 0 0 0 0 0 0 0 0.6 0"/>
<feBlend mode="normal" in2="BackgroundImageFix" result="effect1_dropShadow"/>
<feBlend mode="normal" in="SourceGraphic" in2="effect1_dropShadow" result="shape"/>
</filter>
<filter id="filter1_dd" x="3.45679" y="291.728" width="79.0864" height="63.0864" filterUnits="userSpaceOnUse" color-interpolation-filters="sRGB">
<feFlood flood-opacity="0" result="BackgroundImageFix"/>
<feColorMatrix in="SourceAlpha" type="matrix" values="0 0 0 0 0 0 0 0 0 0 0 0 0 0 0 0 0 0 127 0" result="hardAlpha"/>
<feOffset dy="6.27161"/>
<feGaussianBlur stdDeviation="6.27161"/>
<feColorMatrix type="matrix" values="0 0 0 0 0.196487 0 0 0 0 0.196487 0 0 0 0 0.279476 0 0 0 0.06 0"/>
<feBlend mode="multiply" in2="BackgroundImageFix" result="effect1_dropShadow"/>
<feColorMatrix in="SourceAlpha" type="matrix" values="0 0 0 0 0 0 0 0 0 0 0 0 0 0 0 0 0 0 127 0" result="hardAlpha"/>
<feOffset dy="6.27161"/>
<feGaussianBlur stdDeviation="3.1358"/>
<feColorMatrix type="matrix" values="0 0 0 0 0.196487 0 0 0 0 0.196487 0 0 0 0 0.279476 0 0 0 0.08 0"/>
<feBlend mode="multiply" in2="effect1_dropShadow" result="effect2_dropShadow"/>
<feBlend mode="normal" in="SourceGraphic" in2="effect2_dropShadow" result="shape"/>
</filter>
<filter id="filter2_dd" x="378.457" y="266.728" width="79.0864" height="63.0864" filterUnits="userSpaceOnUse" color-interpolation-filters="sRGB">
<feFlood flood-opacity="0" result="BackgroundImageFix"/>
<feColorMatrix in="SourceAlpha" type="matrix" values="0 0 0 0 0 0 0 0 0 0 0 0 0 0 0 0 0 0 127 0" result="hardAlpha"/>
<feOffset dy="6.27161"/>
<feGaussianBlur stdDeviation="6.27161"/>
<feColorMatrix type="matrix" values="0 0 0 0 0.196487 0 0 0 0 0.196487 0 0 0 0 0.279476 0 0 0 0.06 0"/>
<feBlend mode="multiply" in2="BackgroundImageFix" result="effect1_dropShadow"/>
<feColorMatrix in="SourceAlpha" type="matrix" values="0 0 0 0 0 0 0 0 0 0 0 0 0 0 0 0 0 0 127 0" result="hardAlpha"/>
<feOffset dy="6.27161"/>
<feGaussianBlur stdDeviation="3.1358"/>
<feColorMatrix type="matrix" values="0 0 0 0 0.196487 0 0 0 0 0.196487 0 0 0 0 0.279476 0 0 0 0.08 0"/>
<feBlend mode="multiply" in2="effect1_dropShadow" result="effect2_dropShadow"/>
<feBlend mode="normal" in="SourceGraphic" in2="effect2_dropShadow" result="shape"/>
</filter>
<filter id="filter3_dd" x="699.457" y="144.728" width="79.0864" height="63.0864" filterUnits="userSpaceOnUse" color-interpolation-filters="sRGB">
<feFlood flood-opacity="0" result="BackgroundImageFix"/>
<feColorMatrix in="SourceAlpha" type="matrix" values="0 0 0 0 0 0 0 0 0 0 0 0 0 0 0 0 0 0 127 0" result="hardAlpha"/>
<feOffset dy="6.27161"/>
<feGaussianBlur stdDeviation="6.27161"/>
<feColorMatrix type="matrix" values="0 0 0 0 0.196487 0 0 0 0 0.196487 0 0 0 0 0.279476 0 0 0 0.06 0"/>
<feBlend mode="multiply" in2="BackgroundImageFix" result="effect1_dropShadow"/>
<feColorMatrix in="SourceAlpha" type="matrix" values="0 0 0 0 0 0 0 0 0 0 0 0 0 0 0 0 0 0 127 0" result="hardAlpha"/>
<feOffset dy="6.27161"/>
<feGaussianBlur stdDeviation="3.1358"/>
<feColorMatrix type="matrix" values="0 0 0 0 0.196487 0 0 0 0 0.196487 0 0 0 0 0.279476 0 0 0 0.08 0"/>
<feBlend mode="multiply" in2="effect1_dropShadow" result="effect2_dropShadow"/>
<feBlend mode="normal" in="SourceGraphic" in2="effect2_dropShadow" result="shape"/>
</filter>
<filter id="filter4_dd" x="1052.46" y="0.728395" width="79.0864" height="63.0864" filterUnits="userSpaceOnUse" color-interpolation-filters="sRGB">
<feFlood flood-opacity="0" result="BackgroundImageFix"/>
<feColorMatrix in="SourceAlpha" type="matrix" values="0 0 0 0 0 0 0 0 0 0 0 0 0 0 0 0 0 0 127 0" result="hardAlpha"/>
<feOffset dy="6.27161"/>
<feGaussianBlur stdDeviation="6.27161"/>
<feColorMatrix type="matrix" values="0 0 0 0 0.196487 0 0 0 0 0.196487 0 0 0 0 0.279476 0 0 0 0.06 0"/>
<feBlend mode="multiply" in2="BackgroundImageFix" result="effect1_dropShadow"/>
<feColorMatrix in="SourceAlpha" type="matrix" values="0 0 0 0 0 0 0 0 0 0 0 0 0 0 0 0 0 0 127 0" result="hardAlpha"/>
<feOffset dy="6.27161"/>
<feGaussianBlur stdDeviation="3.1358"/>
<feColorMatrix type="matrix" values="0 0 0 0 0.196487 0 0 0 0 0.196487 0 0 0 0 0.279476 0 0 0 0.08 0"/>
<feBlend mode="multiply" in2="effect1_dropShadow" result="effect2_dropShadow"/>
<feBlend mode="normal" in="SourceGraphic" in2="effect2_dropShadow" result="shape"/>
</filter>
<linearGradient id="paint0_linear" x1="685.128" y1="30.3628" x2="775.683" y2="408.648" gradientUnits="userSpaceOnUse">
<stop stop-color="#F0E70E"/>
<stop offset="1" stop-color="#F0E70E" stop-opacity="0"/>
</linearGradient>
<linearGradient id="paint1_linear" x1="555.764" y1="148.712" x2="548.338" y2="313.384" gradientUnits="userSpaceOnUse">
<stop stop-color="#F0E70E"/>
<stop offset="1" stop-color="#A5EF09"/>
</linearGradient>
<linearGradient id="paint2_linear" x1="43" y1="346" x2="34.2784" y2="374.576" gradientUnits="userSpaceOnUse">
<stop stop-color="#F0E70E"/>
<stop offset="1" stop-color="#A5EF09"/>
</linearGradient>
<linearGradient id="paint3_linear" x1="418" y1="321" x2="406.953" y2="357.196" gradientUnits="userSpaceOnUse">
<stop stop-color="#F0E70E"/>
<stop offset="1" stop-color="#A5EF09"/>
</linearGradient>
<linearGradient id="paint4_linear" x1="418" y1="325" x2="409.278" y2="353.576" gradientUnits="userSpaceOnUse">
<stop stop-color="#F0E70E"/>
<stop offset="1" stop-color="#A5EF09"/>
</linearGradient>
<linearGradient id="paint5_linear" x1="739" y1="198" x2="725.627" y2="241.817" gradientUnits="userSpaceOnUse">
<stop stop-color="#F0E70E"/>
<stop offset="1" stop-color="#A5EF09"/>
</linearGradient>
<linearGradient id="paint6_linear" x1="739" y1="202" x2="727.953" y2="238.196" gradientUnits="userSpaceOnUse">
<stop stop-color="#F0E70E"/>
<stop offset="1" stop-color="#A5EF09"/>
</linearGradient>
<linearGradient id="paint7_linear" x1="739" y1="206" x2="730.278" y2="234.576" gradientUnits="userSpaceOnUse">
<stop stop-color="#F0E70E"/>
<stop offset="1" stop-color="#A5EF09"/>
</linearGradient>
<linearGradient id="paint8_linear" x1="1092" y1="50" x2="1076.3" y2="101.437" gradientUnits="userSpaceOnUse">
<stop stop-color="#F0E70E"/>
<stop offset="1" stop-color="#A5EF09"/>
</linearGradient>
<linearGradient id="paint9_linear" x1="1092" y1="54" x2="1078.63" y2="97.8167" gradientUnits="userSpaceOnUse">
<stop stop-color="#F0E70E"/>
<stop offset="1" stop-color="#A5EF09"/>
</linearGradient>
<linearGradient id="paint10_linear" x1="1092" y1="58" x2="1080.95" y2="94.1964" gradientUnits="userSpaceOnUse">
<stop stop-color="#F0E70E"/>
<stop offset="1" stop-color="#A5EF09"/>
</linearGradient>
<linearGradient id="paint11_linear" x1="1092" y1="62" x2="1083.28" y2="90.5761" gradientUnits="userSpaceOnUse">
<stop stop-color="#F0E70E"/>
<stop offset="1" stop-color="#A5EF09"/>
</linearGradient>
</defs>
</svg>
