<svg width="351" height="347" viewBox="0 0 351 347" fill="none" xmlns="http://www.w3.org/2000/svg">
<path d="M328 51C243.549 51.0003 226.301 348.833 29 332.56L29 338L327.715 334.471L328 51Z" fill="url(#paint0_linear)" fill-opacity="0.2"/>
<g filter="url(#filter0_d)">
<path d="M30 332.357C225.982 348.618 243.113 51.0003 327 51" stroke="url(#paint1_linear)" stroke-width="4" stroke-linecap="round"/>
</g>
<circle opacity="0.1" cx="320.463" cy="50.4634" r="12.4634" fill="url(#paint2_linear)"/>
<circle opacity="0.3" cx="320.463" cy="50.4638" r="10.617" fill="url(#paint3_linear)"/>
<circle opacity="0.5" cx="320.463" cy="50.4633" r="8.77055" fill="url(#paint4_linear)"/>
<circle cx="320.463" cy="50.4637" r="5.77009" fill="white" stroke="url(#paint5_linear)" stroke-width="2.30805"/>
<circle cx="30.9241" cy="331.464" r="5.77009" fill="white" stroke="url(#paint6_linear)" stroke-width="2.30805"/>
<circle opacity="0.5" cx="154.771" cy="287.771" r="8.77055" fill="url(#paint7_linear)"/>
<circle cx="154.771" cy="287.771" r="5.77009" fill="white" stroke="url(#paint8_linear)" stroke-width="2.30805"/>
<circle opacity="0.3" cx="239.617" cy="162.617" r="10.617" fill="url(#paint9_linear)"/>
<circle opacity="0.5" cx="239.617" cy="162.617" r="8.77055" fill="url(#paint10_linear)"/>
<circle cx="239.617" cy="162.617" r="5.77009" fill="white" stroke="url(#paint11_linear)" stroke-width="2.30805"/>
<g filter="url(#filter1_dd)">
<path fill-rule="evenodd" clip-rule="evenodd" d="M320.716 34.0579C320.23 34.8009 319.443 34.8009 318.957 34.0579L318.721 33.7153C318.19 32.943 317.925 32.5568 317.578 32.2776C317.271 32.0303 316.919 31.845 316.541 31.7321C316.114 31.6045 315.646 31.6045 314.709 31.6045H303.886C302.187 31.6045 301.571 31.3949 300.95 31.0013C300.329 30.6078 299.841 30.0302 299.509 29.2943C299.177 28.5583 299 27.8284 299 25.8154V10.9002C299 8.88723 299.177 8.15726 299.509 7.42133C299.841 6.6854 300.329 6.10784 300.95 5.71426C301.571 5.32068 302.187 5.11108 303.886 5.11108H336.041C337.74 5.11108 338.356 5.32068 338.977 5.71426C339.598 6.10784 340.086 6.6854 340.418 7.42133C340.75 8.15726 340.927 8.88723 340.927 10.9002V25.8154C340.927 27.8284 340.75 28.5583 340.418 29.2943C340.086 30.0302 339.598 30.6078 338.977 31.0013C338.356 31.3949 337.74 31.6045 336.041 31.6045H325.38C323.516 31.6045 321.772 32.5221 320.716 34.0579Z" fill="#3A3A3C"/>
</g>
<path d="M310.047 17.5248C311.231 17.5248 312.103 17.7608 312.663 18.2328C313.231 18.7048 313.515 19.3368 313.515 20.1288C313.515 20.6408 313.387 21.1088 313.131 21.5328C312.875 21.9488 312.483 22.2848 311.955 22.5408C311.435 22.7888 310.791 22.9128 310.023 22.9128C309.431 22.9128 308.847 22.8368 308.271 22.6848C307.703 22.5248 307.219 22.3008 306.819 22.0128L307.587 20.5248C307.907 20.7648 308.275 20.9528 308.691 21.0888C309.107 21.2168 309.535 21.2808 309.975 21.2808C310.463 21.2808 310.847 21.1848 311.127 20.9928C311.407 20.8008 311.547 20.5328 311.547 20.1888C311.547 19.8288 311.399 19.5568 311.103 19.3728C310.815 19.1888 310.311 19.0968 309.591 19.0968H307.443L307.875 14.3688H312.999V15.9288H309.495L309.363 17.5248H310.047ZM317.904 22.9128C317.208 22.9128 316.588 22.7408 316.044 22.3968C315.5 22.0528 315.072 21.5568 314.76 20.9088C314.456 20.2528 314.304 19.4728 314.304 18.5688C314.304 17.6648 314.456 16.8888 314.76 16.2408C315.072 15.5848 315.5 15.0848 316.044 14.7408C316.588 14.3968 317.208 14.2248 317.904 14.2248C318.6 14.2248 319.22 14.3968 319.764 14.7408C320.308 15.0848 320.732 15.5848 321.036 16.2408C321.348 16.8888 321.504 17.6648 321.504 18.5688C321.504 19.4728 321.348 20.2528 321.036 20.9088C320.732 21.5568 320.308 22.0528 319.764 22.3968C319.22 22.7408 318.6 22.9128 317.904 22.9128ZM317.904 21.2688C318.416 21.2688 318.816 21.0488 319.104 20.6088C319.4 20.1688 319.548 19.4888 319.548 18.5688C319.548 17.6488 319.4 16.9688 319.104 16.5288C318.816 16.0888 318.416 15.8688 317.904 15.8688C317.4 15.8688 317 16.0888 316.704 16.5288C316.416 16.9688 316.272 17.6488 316.272 18.5688C316.272 19.4888 316.416 20.1688 316.704 20.6088C317 21.0488 317.4 21.2688 317.904 21.2688ZM324.392 18.9048C323.776 18.9048 323.272 18.6968 322.88 18.2808C322.496 17.8568 322.304 17.2928 322.304 16.5888C322.304 15.8848 322.496 15.3248 322.88 14.9088C323.272 14.4848 323.776 14.2728 324.392 14.2728C325.008 14.2728 325.508 14.4848 325.892 14.9088C326.276 15.3248 326.468 15.8848 326.468 16.5888C326.468 17.2928 326.276 17.8568 325.892 18.2808C325.508 18.6968 325.008 18.9048 324.392 18.9048ZM329.396 14.3688H330.824L325.088 22.7688H323.66L329.396 14.3688ZM324.392 17.9208C324.664 17.9208 324.876 17.8088 325.028 17.5848C325.188 17.3608 325.268 17.0288 325.268 16.5888C325.268 16.1488 325.188 15.8168 325.028 15.5928C324.876 15.3688 324.664 15.2568 324.392 15.2568C324.128 15.2568 323.916 15.3728 323.756 15.6048C323.596 15.8288 323.516 16.1568 323.516 16.5888C323.516 17.0208 323.596 17.3528 323.756 17.5848C323.916 17.8088 324.128 17.9208 324.392 17.9208ZM330.092 22.8648C329.692 22.8648 329.332 22.7728 329.012 22.5888C328.7 22.3968 328.456 22.1248 328.28 21.7728C328.104 21.4208 328.016 21.0128 328.016 20.5488C328.016 20.0848 328.104 19.6768 328.28 19.3248C328.456 18.9728 328.7 18.7048 329.012 18.5208C329.332 18.3288 329.692 18.2328 330.092 18.2328C330.708 18.2328 331.208 18.4448 331.592 18.8688C331.984 19.2848 332.18 19.8448 332.18 20.5488C332.18 21.2528 331.984 21.8168 331.592 22.2408C331.208 22.6568 330.708 22.8648 330.092 22.8648ZM330.092 21.8808C330.364 21.8808 330.576 21.7688 330.728 21.5448C330.888 21.3128 330.968 20.9808 330.968 20.5488C330.968 20.1168 330.888 19.7888 330.728 19.5648C330.576 19.3328 330.364 19.2168 330.092 19.2168C329.828 19.2168 329.616 19.3288 329.456 19.5528C329.296 19.7768 329.216 20.1088 329.216 20.5488C329.216 20.9888 329.296 21.3208 329.456 21.5448C329.616 21.7688 329.828 21.8808 330.092 21.8808Z" fill="white"/>
<g filter="url(#filter2_dd)">
<path fill-rule="evenodd" clip-rule="evenodd" d="M240.716 143.947C240.23 144.69 239.443 144.69 238.957 143.947L238.721 143.604C238.19 142.832 237.925 142.446 237.578 142.166C237.271 141.919 236.919 141.734 236.541 141.621C236.114 141.493 235.646 141.493 234.709 141.493H223.886C222.187 141.493 221.571 141.284 220.95 140.89C220.329 140.497 219.841 139.919 219.509 139.183C219.177 138.447 219 137.717 219 135.704V120.789C219 118.776 219.177 118.046 219.509 117.31C219.841 116.574 220.329 115.997 220.95 115.603C221.571 115.21 222.187 115 223.886 115H256.041C257.74 115 258.356 115.21 258.977 115.603C259.598 115.997 260.086 116.574 260.418 117.31C260.75 118.046 260.927 118.776 260.927 120.789V135.704C260.927 137.717 260.75 138.447 260.418 139.183C260.086 139.919 259.598 140.497 258.977 140.89C258.356 141.284 257.74 141.493 256.041 141.493H245.38C243.516 141.493 241.772 142.411 240.716 143.947Z" fill="#3A3A3C"/>
</g>
<path d="M234.865 130.894H233.497V132.658H231.601V130.894H227.077V129.586L231.037 124.258H233.077L229.405 129.31H231.661V127.738H233.497V129.31H234.865V130.894ZM238.303 127.414C239.487 127.414 240.359 127.65 240.919 128.122C241.487 128.594 241.771 129.226 241.771 130.018C241.771 130.53 241.643 130.998 241.387 131.422C241.131 131.838 240.739 132.174 240.211 132.43C239.691 132.678 239.047 132.802 238.279 132.802C237.687 132.802 237.103 132.726 236.527 132.574C235.959 132.414 235.475 132.19 235.075 131.902L235.843 130.414C236.163 130.654 236.531 130.842 236.947 130.978C237.363 131.106 237.791 131.17 238.231 131.17C238.719 131.17 239.103 131.074 239.383 130.882C239.663 130.69 239.803 130.422 239.803 130.078C239.803 129.718 239.655 129.446 239.359 129.262C239.071 129.078 238.567 128.986 237.847 128.986H235.699L236.131 124.258H241.255V125.818H237.751L237.619 127.414H238.303ZM244.386 128.794C243.77 128.794 243.266 128.586 242.874 128.17C242.49 127.746 242.298 127.182 242.298 126.478C242.298 125.774 242.49 125.214 242.874 124.798C243.266 124.374 243.77 124.162 244.386 124.162C245.002 124.162 245.502 124.374 245.886 124.798C246.27 125.214 246.462 125.774 246.462 126.478C246.462 127.182 246.27 127.746 245.886 128.17C245.502 128.586 245.002 128.794 244.386 128.794ZM249.39 124.258H250.818L245.082 132.658H243.654L249.39 124.258ZM244.386 127.81C244.658 127.81 244.87 127.698 245.022 127.474C245.182 127.25 245.262 126.918 245.262 126.478C245.262 126.038 245.182 125.706 245.022 125.482C244.87 125.258 244.658 125.146 244.386 125.146C244.122 125.146 243.91 125.262 243.75 125.494C243.59 125.718 243.51 126.046 243.51 126.478C243.51 126.91 243.59 127.242 243.75 127.474C243.91 127.698 244.122 127.81 244.386 127.81ZM250.086 132.754C249.686 132.754 249.326 132.662 249.006 132.478C248.694 132.286 248.45 132.014 248.274 131.662C248.098 131.31 248.01 130.902 248.01 130.438C248.01 129.974 248.098 129.566 248.274 129.214C248.45 128.862 248.694 128.594 249.006 128.41C249.326 128.218 249.686 128.122 250.086 128.122C250.702 128.122 251.202 128.334 251.586 128.758C251.978 129.174 252.174 129.734 252.174 130.438C252.174 131.142 251.978 131.706 251.586 132.13C251.202 132.546 250.702 132.754 250.086 132.754ZM250.086 131.77C250.358 131.77 250.57 131.658 250.722 131.434C250.882 131.202 250.962 130.87 250.962 130.438C250.962 130.006 250.882 129.678 250.722 129.454C250.57 129.222 250.358 129.106 250.086 129.106C249.822 129.106 249.61 129.218 249.45 129.442C249.29 129.666 249.21 129.998 249.21 130.438C249.21 130.878 249.29 131.21 249.45 131.434C249.61 131.658 249.822 131.77 250.086 131.77Z" fill="white"/>
<g filter="url(#filter3_dd)">
<path fill-rule="evenodd" clip-rule="evenodd" d="M155.716 271.947C155.23 272.69 154.443 272.69 153.957 271.947L153.721 271.604C153.19 270.832 152.925 270.446 152.578 270.166C152.271 269.919 151.919 269.734 151.541 269.621C151.114 269.493 150.646 269.493 149.709 269.493H138.886C137.187 269.493 136.571 269.284 135.95 268.89C135.329 268.497 134.841 267.919 134.509 267.183C134.177 266.447 134 265.717 134 263.704V248.789C134 246.776 134.177 246.046 134.509 245.31C134.841 244.574 135.329 243.997 135.95 243.603C136.571 243.21 137.187 243 138.886 243H171.041C172.74 243 173.356 243.21 173.977 243.603C174.598 243.997 175.086 244.574 175.418 245.31C175.75 246.046 175.927 246.776 175.927 248.789V263.704C175.927 265.717 175.75 266.447 175.418 267.183C175.086 267.919 174.598 268.497 173.977 268.89C173.356 269.284 172.74 269.493 171.041 269.493H160.38C158.516 269.493 156.772 270.411 155.716 271.947Z" fill="#3A3A3C"/>
</g>
<path d="M149.291 258.894H147.923V260.658H146.027V258.894H141.503V257.586L145.463 252.258H147.503L143.831 257.31H146.087V255.738H147.923V257.31H149.291V258.894ZM153.472 260.802C152.776 260.802 152.156 260.63 151.612 260.286C151.068 259.942 150.64 259.446 150.328 258.798C150.024 258.142 149.872 257.362 149.872 256.458C149.872 255.554 150.024 254.778 150.328 254.13C150.64 253.474 151.068 252.974 151.612 252.63C152.156 252.286 152.776 252.114 153.472 252.114C154.168 252.114 154.788 252.286 155.332 252.63C155.876 252.974 156.3 253.474 156.604 254.13C156.916 254.778 157.072 255.554 157.072 256.458C157.072 257.362 156.916 258.142 156.604 258.798C156.3 259.446 155.876 259.942 155.332 260.286C154.788 260.63 154.168 260.802 153.472 260.802ZM153.472 259.158C153.984 259.158 154.384 258.938 154.672 258.498C154.968 258.058 155.116 257.378 155.116 256.458C155.116 255.538 154.968 254.858 154.672 254.418C154.384 253.978 153.984 253.758 153.472 253.758C152.968 253.758 152.568 253.978 152.272 254.418C151.984 254.858 151.84 255.538 151.84 256.458C151.84 257.378 151.984 258.058 152.272 258.498C152.568 258.938 152.968 259.158 153.472 259.158ZM159.961 256.794C159.345 256.794 158.841 256.586 158.449 256.17C158.065 255.746 157.873 255.182 157.873 254.478C157.873 253.774 158.065 253.214 158.449 252.798C158.841 252.374 159.345 252.162 159.961 252.162C160.577 252.162 161.077 252.374 161.461 252.798C161.845 253.214 162.037 253.774 162.037 254.478C162.037 255.182 161.845 255.746 161.461 256.17C161.077 256.586 160.577 256.794 159.961 256.794ZM164.965 252.258H166.393L160.657 260.658H159.229L164.965 252.258ZM159.961 255.81C160.233 255.81 160.445 255.698 160.597 255.474C160.757 255.25 160.837 254.918 160.837 254.478C160.837 254.038 160.757 253.706 160.597 253.482C160.445 253.258 160.233 253.146 159.961 253.146C159.697 253.146 159.485 253.262 159.325 253.494C159.165 253.718 159.085 254.046 159.085 254.478C159.085 254.91 159.165 255.242 159.325 255.474C159.485 255.698 159.697 255.81 159.961 255.81ZM165.661 260.754C165.261 260.754 164.901 260.662 164.581 260.478C164.269 260.286 164.025 260.014 163.849 259.662C163.673 259.31 163.585 258.902 163.585 258.438C163.585 257.974 163.673 257.566 163.849 257.214C164.025 256.862 164.269 256.594 164.581 256.41C164.901 256.218 165.261 256.122 165.661 256.122C166.277 256.122 166.777 256.334 167.161 256.758C167.553 257.174 167.749 257.734 167.749 258.438C167.749 259.142 167.553 259.706 167.161 260.13C166.777 260.546 166.277 260.754 165.661 260.754ZM165.661 259.77C165.933 259.77 166.145 259.658 166.297 259.434C166.457 259.202 166.537 258.87 166.537 258.438C166.537 258.006 166.457 257.678 166.297 257.454C166.145 257.222 165.933 257.106 165.661 257.106C165.397 257.106 165.185 257.218 165.025 257.442C164.865 257.666 164.785 257.998 164.785 258.438C164.785 258.878 164.865 259.21 165.025 259.434C165.185 259.658 165.397 259.77 165.661 259.77Z" fill="white"/>
<g filter="url(#filter4_dd)">
<path fill-rule="evenodd" clip-rule="evenodd" d="M31.7159 316.947C31.2302 317.69 30.4426 317.69 29.9568 316.947L29.7212 316.604C29.1903 315.832 28.9248 315.446 28.578 315.166C28.2709 314.919 27.9188 314.734 27.541 314.621C27.1144 314.493 26.6458 314.493 25.7086 314.493H14.8862C13.1871 314.493 12.571 314.284 11.9499 313.89C11.3288 313.497 10.8413 312.919 10.5091 312.183C10.1769 311.447 10 310.717 10 308.704V293.789C10 291.776 10.1769 291.046 10.5091 290.31C10.8413 289.574 11.3288 288.997 11.9499 288.603C12.571 288.21 13.1871 288 14.8862 288H47.0406C48.7397 288 49.3558 288.21 49.9769 288.603C50.5981 288.997 51.0855 289.574 51.4177 290.31C51.7499 291.046 51.9268 291.776 51.9268 293.789V308.704C51.9268 310.717 51.7499 311.447 51.4177 312.183C51.0855 312.919 50.5981 313.497 49.9769 313.89C49.3558 314.284 48.7397 314.493 47.0406 314.493H36.3799C34.5161 314.493 32.7718 315.411 31.7159 316.947Z" fill="#3A3A3C"/>
</g>
<path d="M22.7296 300.678C23.4656 300.798 24.0296 301.074 24.4216 301.506C24.8136 301.93 25.0096 302.458 25.0096 303.09C25.0096 303.578 24.8816 304.03 24.6256 304.446C24.3696 304.854 23.9776 305.182 23.4496 305.43C22.9296 305.678 22.2896 305.802 21.5296 305.802C20.9376 305.802 20.3536 305.726 19.7776 305.574C19.2096 305.414 18.7256 305.19 18.3256 304.902L19.0816 303.414C19.4016 303.654 19.7696 303.842 20.1856 303.978C20.6096 304.106 21.0416 304.17 21.4816 304.17C21.9696 304.17 22.3536 304.078 22.6336 303.894C22.9136 303.702 23.0536 303.434 23.0536 303.09C23.0536 302.402 22.5296 302.058 21.4816 302.058H20.5936V300.774L22.3216 298.818H18.7456V297.258H24.6256V298.518L22.7296 300.678ZM28.67 300.414C29.854 300.414 30.726 300.65 31.286 301.122C31.854 301.594 32.138 302.226 32.138 303.018C32.138 303.53 32.01 303.998 31.754 304.422C31.498 304.838 31.106 305.174 30.578 305.43C30.058 305.678 29.414 305.802 28.646 305.802C28.054 305.802 27.47 305.726 26.894 305.574C26.326 305.414 25.842 305.19 25.442 304.902L26.21 303.414C26.53 303.654 26.898 303.842 27.314 303.978C27.73 304.106 28.158 304.17 28.598 304.17C29.086 304.17 29.47 304.074 29.75 303.882C30.03 303.69 30.17 303.422 30.17 303.078C30.17 302.718 30.022 302.446 29.726 302.262C29.438 302.078 28.934 301.986 28.214 301.986H26.066L26.498 297.258H31.622V298.818H28.118L27.986 300.414H28.67ZM34.7535 301.794C34.1375 301.794 33.6335 301.586 33.2415 301.17C32.8575 300.746 32.6655 300.182 32.6655 299.478C32.6655 298.774 32.8575 298.214 33.2415 297.798C33.6335 297.374 34.1375 297.162 34.7535 297.162C35.3695 297.162 35.8695 297.374 36.2535 297.798C36.6375 298.214 36.8295 298.774 36.8295 299.478C36.8295 300.182 36.6375 300.746 36.2535 301.17C35.8695 301.586 35.3695 301.794 34.7535 301.794ZM39.7575 297.258H41.1855L35.4495 305.658H34.0215L39.7575 297.258ZM34.7535 300.81C35.0255 300.81 35.2375 300.698 35.3895 300.474C35.5495 300.25 35.6295 299.918 35.6295 299.478C35.6295 299.038 35.5495 298.706 35.3895 298.482C35.2375 298.258 35.0255 298.146 34.7535 298.146C34.4895 298.146 34.2775 298.262 34.1175 298.494C33.9575 298.718 33.8775 299.046 33.8775 299.478C33.8775 299.91 33.9575 300.242 34.1175 300.474C34.2775 300.698 34.4895 300.81 34.7535 300.81ZM40.4535 305.754C40.0535 305.754 39.6935 305.662 39.3735 305.478C39.0615 305.286 38.8175 305.014 38.6415 304.662C38.4655 304.31 38.3775 303.902 38.3775 303.438C38.3775 302.974 38.4655 302.566 38.6415 302.214C38.8175 301.862 39.0615 301.594 39.3735 301.41C39.6935 301.218 40.0535 301.122 40.4535 301.122C41.0695 301.122 41.5695 301.334 41.9535 301.758C42.3455 302.174 42.5415 302.734 42.5415 303.438C42.5415 304.142 42.3455 304.706 41.9535 305.13C41.5695 305.546 41.0695 305.754 40.4535 305.754ZM40.4535 304.77C40.7255 304.77 40.9375 304.658 41.0895 304.434C41.2495 304.202 41.3295 303.87 41.3295 303.438C41.3295 303.006 41.2495 302.678 41.0895 302.454C40.9375 302.222 40.7255 302.106 40.4535 302.106C40.1895 302.106 39.9775 302.218 39.8175 302.442C39.6575 302.666 39.5775 302.998 39.5775 303.438C39.5775 303.878 39.6575 304.21 39.8175 304.434C39.9775 304.658 40.1895 304.77 40.4535 304.77Z" fill="white"/>
<defs>
<filter id="filter0_d" x="16.943" y="37.9431" width="323.114" height="308.115" filterUnits="userSpaceOnUse" color-interpolation-filters="sRGB">
<feFlood flood-opacity="0" result="BackgroundImageFix"/>
<feColorMatrix in="SourceAlpha" type="matrix" values="0 0 0 0 0 0 0 0 0 0 0 0 0 0 0 0 0 0 127 0" result="hardAlpha"/>
<feOffset/>
<feGaussianBlur stdDeviation="5.52846"/>
<feComposite in2="hardAlpha" operator="out"/>
<feColorMatrix type="matrix" values="0 0 0 0 0.852833 0 0 0 0 0.991667 0 0 0 0 0 0 0 0 0.6 0"/>
<feBlend mode="normal" in2="BackgroundImageFix" result="effect1_dropShadow"/>
<feBlend mode="normal" in="SourceGraphic" in2="effect1_dropShadow" result="shape"/>
</filter>
<filter id="filter1_dd" x="289.261" y="0.241669" width="61.4045" height="48.9817" filterUnits="userSpaceOnUse" color-interpolation-filters="sRGB">
<feFlood flood-opacity="0" result="BackgroundImageFix"/>
<feColorMatrix in="SourceAlpha" type="matrix" values="0 0 0 0 0 0 0 0 0 0 0 0 0 0 0 0 0 0 127 0" result="hardAlpha"/>
<feOffset dy="4.86941"/>
<feGaussianBlur stdDeviation="4.86941"/>
<feColorMatrix type="matrix" values="0 0 0 0 0.196487 0 0 0 0 0.196487 0 0 0 0 0.279476 0 0 0 0.06 0"/>
<feBlend mode="multiply" in2="BackgroundImageFix" result="effect1_dropShadow"/>
<feColorMatrix in="SourceAlpha" type="matrix" values="0 0 0 0 0 0 0 0 0 0 0 0 0 0 0 0 0 0 127 0" result="hardAlpha"/>
<feOffset dy="4.86941"/>
<feGaussianBlur stdDeviation="2.43471"/>
<feColorMatrix type="matrix" values="0 0 0 0 0.196487 0 0 0 0 0.196487 0 0 0 0 0.279476 0 0 0 0.08 0"/>
<feBlend mode="multiply" in2="effect1_dropShadow" result="effect2_dropShadow"/>
<feBlend mode="normal" in="SourceGraphic" in2="effect2_dropShadow" result="shape"/>
</filter>
<filter id="filter2_dd" x="209.261" y="110.131" width="61.4045" height="48.9817" filterUnits="userSpaceOnUse" color-interpolation-filters="sRGB">
<feFlood flood-opacity="0" result="BackgroundImageFix"/>
<feColorMatrix in="SourceAlpha" type="matrix" values="0 0 0 0 0 0 0 0 0 0 0 0 0 0 0 0 0 0 127 0" result="hardAlpha"/>
<feOffset dy="4.86941"/>
<feGaussianBlur stdDeviation="4.86941"/>
<feColorMatrix type="matrix" values="0 0 0 0 0.196487 0 0 0 0 0.196487 0 0 0 0 0.279476 0 0 0 0.06 0"/>
<feBlend mode="multiply" in2="BackgroundImageFix" result="effect1_dropShadow"/>
<feColorMatrix in="SourceAlpha" type="matrix" values="0 0 0 0 0 0 0 0 0 0 0 0 0 0 0 0 0 0 127 0" result="hardAlpha"/>
<feOffset dy="4.86941"/>
<feGaussianBlur stdDeviation="2.43471"/>
<feColorMatrix type="matrix" values="0 0 0 0 0.196487 0 0 0 0 0.196487 0 0 0 0 0.279476 0 0 0 0.08 0"/>
<feBlend mode="multiply" in2="effect1_dropShadow" result="effect2_dropShadow"/>
<feBlend mode="normal" in="SourceGraphic" in2="effect2_dropShadow" result="shape"/>
</filter>
<filter id="filter3_dd" x="124.261" y="238.131" width="61.4045" height="48.9817" filterUnits="userSpaceOnUse" color-interpolation-filters="sRGB">
<feFlood flood-opacity="0" result="BackgroundImageFix"/>
<feColorMatrix in="SourceAlpha" type="matrix" values="0 0 0 0 0 0 0 0 0 0 0 0 0 0 0 0 0 0 127 0" result="hardAlpha"/>
<feOffset dy="4.86941"/>
<feGaussianBlur stdDeviation="4.86941"/>
<feColorMatrix type="matrix" values="0 0 0 0 0.196487 0 0 0 0 0.196487 0 0 0 0 0.279476 0 0 0 0.06 0"/>
<feBlend mode="multiply" in2="BackgroundImageFix" result="effect1_dropShadow"/>
<feColorMatrix in="SourceAlpha" type="matrix" values="0 0 0 0 0 0 0 0 0 0 0 0 0 0 0 0 0 0 127 0" result="hardAlpha"/>
<feOffset dy="4.86941"/>
<feGaussianBlur stdDeviation="2.43471"/>
<feColorMatrix type="matrix" values="0 0 0 0 0.196487 0 0 0 0 0.196487 0 0 0 0 0.279476 0 0 0 0.08 0"/>
<feBlend mode="multiply" in2="effect1_dropShadow" result="effect2_dropShadow"/>
<feBlend mode="normal" in="SourceGraphic" in2="effect2_dropShadow" result="shape"/>
</filter>
<filter id="filter4_dd" x="0.26117" y="283.131" width="61.4045" height="48.9817" filterUnits="userSpaceOnUse" color-interpolation-filters="sRGB">
<feFlood flood-opacity="0" result="BackgroundImageFix"/>
<feColorMatrix in="SourceAlpha" type="matrix" values="0 0 0 0 0 0 0 0 0 0 0 0 0 0 0 0 0 0 127 0" result="hardAlpha"/>
<feOffset dy="4.86941"/>
<feGaussianBlur stdDeviation="4.86941"/>
<feColorMatrix type="matrix" values="0 0 0 0 0.196487 0 0 0 0 0.196487 0 0 0 0 0.279476 0 0 0 0.06 0"/>
<feBlend mode="multiply" in2="BackgroundImageFix" result="effect1_dropShadow"/>
<feColorMatrix in="SourceAlpha" type="matrix" values="0 0 0 0 0 0 0 0 0 0 0 0 0 0 0 0 0 0 127 0" result="hardAlpha"/>
<feOffset dy="4.86941"/>
<feGaussianBlur stdDeviation="2.43471"/>
<feColorMatrix type="matrix" values="0 0 0 0 0.196487 0 0 0 0 0.196487 0 0 0 0 0.279476 0 0 0 0.08 0"/>
<feBlend mode="multiply" in2="effect1_dropShadow" result="effect2_dropShadow"/>
<feBlend mode="normal" in="SourceGraphic" in2="effect2_dropShadow" result="shape"/>
</filter>
<linearGradient id="paint0_linear" x1="212.028" y1="5.14222" x2="405.119" y2="238.965" gradientUnits="userSpaceOnUse">
<stop stop-color="#F0E70E"/>
<stop offset="1" stop-color="#F0E70E" stop-opacity="0"/>
</linearGradient>
<linearGradient id="paint1_linear" x1="175.177" y1="121.463" x2="150.409" y2="279.719" gradientUnits="userSpaceOnUse">
<stop stop-color="#F0E70E"/>
<stop offset="1" stop-color="#A5EF09"/>
</linearGradient>
<linearGradient id="paint2_linear" x1="320.463" y1="38" x2="313.217" y2="61.7437" gradientUnits="userSpaceOnUse">
<stop stop-color="#F0E70E"/>
<stop offset="1" stop-color="#A5EF09"/>
</linearGradient>
<linearGradient id="paint3_linear" x1="320.463" y1="39.8468" x2="314.29" y2="60.0729" gradientUnits="userSpaceOnUse">
<stop stop-color="#F0E70E"/>
<stop offset="1" stop-color="#A5EF09"/>
</linearGradient>
<linearGradient id="paint4_linear" x1="320.463" y1="41.6927" x2="315.364" y2="58.4013" gradientUnits="userSpaceOnUse">
<stop stop-color="#F0E70E"/>
<stop offset="1" stop-color="#A5EF09"/>
</linearGradient>
<linearGradient id="paint5_linear" x1="320.463" y1="43.5396" x2="316.437" y2="56.7305" gradientUnits="userSpaceOnUse">
<stop stop-color="#F0E70E"/>
<stop offset="1" stop-color="#A5EF09"/>
</linearGradient>
<linearGradient id="paint6_linear" x1="30.9241" y1="324.54" x2="26.8982" y2="337.731" gradientUnits="userSpaceOnUse">
<stop stop-color="#F0E70E"/>
<stop offset="1" stop-color="#A5EF09"/>
</linearGradient>
<linearGradient id="paint7_linear" x1="154.771" y1="279" x2="149.671" y2="295.709" gradientUnits="userSpaceOnUse">
<stop stop-color="#F0E70E"/>
<stop offset="1" stop-color="#A5EF09"/>
</linearGradient>
<linearGradient id="paint8_linear" x1="154.771" y1="280.847" x2="150.745" y2="294.038" gradientUnits="userSpaceOnUse">
<stop stop-color="#F0E70E"/>
<stop offset="1" stop-color="#A5EF09"/>
</linearGradient>
<linearGradient id="paint9_linear" x1="239.617" y1="152" x2="233.444" y2="172.226" gradientUnits="userSpaceOnUse">
<stop stop-color="#F0E70E"/>
<stop offset="1" stop-color="#A5EF09"/>
</linearGradient>
<linearGradient id="paint10_linear" x1="239.617" y1="153.846" x2="234.518" y2="170.554" gradientUnits="userSpaceOnUse">
<stop stop-color="#F0E70E"/>
<stop offset="1" stop-color="#A5EF09"/>
</linearGradient>
<linearGradient id="paint11_linear" x1="239.617" y1="155.693" x2="235.591" y2="168.884" gradientUnits="userSpaceOnUse">
<stop stop-color="#F0E70E"/>
<stop offset="1" stop-color="#A5EF09"/>
</linearGradient>
</defs>
</svg>
